<svg width="184" height="64" viewBox="0 0 184 64" fill="none" xmlns="http://www.w3.org/2000/svg">
<path fill-rule="evenodd" clip-rule="evenodd" d="M134.815 30.9548L127.672 43.26L121.578 43.2841L134.815 20.123L148.002 43.2841H141.811L134.815 30.9536V30.9548ZM115.581 37.9274H122.407L119.238 43.2841H110.342L110.366 36.7616V20.2654H115.607L115.583 37.9274H115.581ZM96.8624 20.2666C103.37 20.2907 108.635 25.4315 108.611 31.7862C108.587 38.118 103.322 43.26 96.8129 43.26C90.3291 43.2358 85.064 38.0951 85.064 31.7392C85.0882 25.4073 90.3532 20.2666 96.8624 20.2666ZM96.8383 37.9044C100.323 37.9044 103.125 35.1663 103.125 31.7862C103.151 28.4073 100.323 25.6451 96.8624 25.6451C93.4003 25.6209 90.5728 28.3832 90.5728 31.7633C90.5487 35.1422 93.3761 37.9044 96.8371 37.9044H96.8383ZM75.363 29.958C75.2906 29.0047 75.0456 27.7436 74.68 26.5308C73.9276 24.0258 72.6196 21.7228 70.8534 19.7936C69.9266 18.7944 68.8792 17.8652 67.3176 16.7707C66.1273 16.1832 64.9569 15.5562 63.8084 14.8905C63.053 14.4621 62.1503 13.9372 60.9569 13.5571C59.5417 13.2231 58.0952 13.0398 56.6415 13.0104C55.2296 12.9622 53.8141 13.0828 52.4493 13.3435C51.0108 13.5812 49.8162 13.9613 48.2317 14.3427C44.6477 15.8897 41.8697 18.2224 39.4804 21.3177C31.1442 32.9568 38.6767 49.2623 52.5953 51.1895C54.8869 51.4996 57.1785 51.3802 59.3471 50.8806L60.8832 50.4763C60.9315 50.4522 61.0051 50.4281 61.0534 50.4281L62.8092 49.7619C62.9058 49.7137 62.9794 49.6895 63.0771 49.6425L63.8084 49.3094C65.2115 48.6169 66.5286 47.7624 67.7327 46.7632C66.6367 47.7591 65.4446 48.6439 64.174 49.4047L64.2465 49.453C64.4914 49.3806 64.7098 49.3094 64.9536 49.2623C64.9536 49.2623 64.9536 49.6425 64.9053 49.5713C64.5156 49.8573 65.125 49.5954 65.9045 49.1899C66.6853 48.7857 67.4407 48.2849 68.1225 47.7141C69.1229 46.8814 70.0002 45.9764 71.2432 44.5017C72.5103 42.2873 74.0959 40.359 74.8272 37.7644C75.071 37.0742 75.2894 36.2657 75.4366 35.4318C75.5814 34.5991 75.6804 33.7424 75.6804 32.8614C75.6562 31.9805 75.5585 31.0754 75.363 29.958ZM57.3245 49.5242C61.5904 48.8569 65.1732 46.5013 68.0984 43.2877C68.9033 42.1208 69.5368 41.0492 70.3164 39.8835C71.2914 37.5026 71.219 35.3847 71.5352 33.886C71.9262 31.1708 70.9994 28.9817 70.2198 26.6491C69.0252 23.9351 67.4407 21.9126 64.6616 20.3414C57.6407 16.0092 48.0857 17.222 43.5278 23.6974C43.5037 23.6974 43.3806 23.8639 43.1368 24.197C43.4542 22.8647 44.2591 22.0791 45.0628 21.3165C47.4521 19.3652 50.2313 17.8169 53.4002 17.0567C56.9842 16.6753 60.5417 17.0567 63.7348 18.6037C68.5135 21.3165 71.6824 25.5787 72.4861 30.6229V35.2894C71.4869 42.9305 64.9053 48.7386 57.3245 49.5242ZM74.8513 32.147C74.68 20.9605 63.5405 13.4147 52.6931 14.9388C49.5241 15.7232 46.062 17.2944 43.6002 19.4846C42.4055 20.269 41.8456 21.7219 40.6509 22.8877C35.8722 29.8627 36.7024 38.789 42.6493 44.2169C43.4121 44.9711 44.2266 45.6711 45.0869 46.3118C40.1151 43.3348 37.8718 38.8348 37.0922 33.3622C37.0922 31.4097 37.482 29.4813 37.8959 27.53C40.6763 18.9838 49.4264 12.7715 58.9585 14.3427C60.5429 14.724 62.1274 15.1283 63.7372 15.5096C65.7356 16.294 67.7098 17.4609 69.2943 19.0092C70.8787 20.555 72.0734 22.5075 73.2681 24.4347C74.0718 25.983 74.4628 27.9343 74.8526 29.4813C74.925 30.3623 74.925 31.2673 74.8526 32.1482L74.8513 32.147Z" fill="black"/>
<path fill-rule="evenodd" clip-rule="evenodd" d="M64.952 32.3131C64.952 37.122 60.9058 41.0258 55.9086 41.0258C50.9127 41.0258 46.8652 37.122 46.8652 32.3131C46.8652 27.5054 50.9115 23.6016 55.9086 23.6016C60.9058 23.6016 64.952 27.5054 64.952 32.3143V32.3131Z" fill="white"/>
<path fill-rule="evenodd" clip-rule="evenodd" d="M64.996 30.8411C64.8741 30.175 64.6786 29.6513 64.4843 28.914C63.7035 27.2945 62.5583 26.0335 61.0463 24.9619C55.3915 21.2258 47.6152 24.8195 46.7873 31.1995C46.4712 33.7228 47.3726 36.1508 48.9812 38.008C48.4937 37.5072 47.9579 36.9847 47.5922 36.3886L47.544 36.4368C47.5922 36.5792 47.7877 36.6746 47.836 36.817C47.836 36.817 47.6405 36.817 47.69 36.7928C47.544 36.6275 47.6659 36.8894 47.8843 37.2453C48.0798 37.6025 48.3235 37.9368 48.6156 38.2457C49.0307 38.6983 49.4687 39.1025 50.2 39.6504C51.274 40.1971 52.2237 40.9114 53.4667 41.2445C53.8082 41.341 54.198 41.4352 54.589 41.5064C55.0029 41.5788 55.3927 41.6029 55.8319 41.6029C56.2458 41.6029 56.6851 41.5546 57.2209 41.4581C57.7734 41.393 58.3195 41.282 58.8536 41.1262C60.0466 40.7672 61.1455 40.1491 62.072 39.3161C62.5354 38.8889 63.1943 38.3411 63.7047 37.6267C64.1199 36.8182 64.1681 36.4127 64.3636 36.0555C64.5579 35.6983 64.8017 35.294 64.973 34.7462C65.1127 34.0962 65.1943 33.4351 65.2168 32.7707C65.1927 32.1046 65.1444 31.4614 64.9972 30.8423L64.996 30.8411ZM59.1939 26.4148C60.0229 26.8902 60.1448 26.9614 59.7056 26.6525C60.3403 26.7949 60.7301 27.1521 61.1199 27.5093C62.0708 28.5809 62.8504 29.8419 63.2401 31.2937C63.4598 32.936 63.2884 34.5784 62.5825 36.0314C61.3154 38.2445 59.2917 39.7204 56.8782 40.1246C56.6103 40.1246 56.3182 40.1246 56.0491 40.1488C56.7321 40.0293 57.1714 39.6009 58.4144 39.1484C59.7538 38.6729 61.2659 36.4598 61.9984 35.1734C64.1428 31.6738 61.6074 28.4373 59.1939 26.4148ZM54.6119 40.1717C50.9072 39.7916 48.0544 36.7687 47.6647 33.2691C48.005 35.2216 49.1755 36.7204 50.76 38.0539C51.3211 38.4111 52.1489 38.9107 52.7101 39.2679C53.661 39.6251 54.2209 40.0064 55.1477 40.1729H54.6119V40.1717ZM64.5808 33.817C64.4119 34.5555 64.2405 35.2687 64.0692 36.0072C63.7035 36.9123 63.1677 37.8403 62.4364 38.5776C61.7052 39.3161 60.7784 39.8869 59.8528 40.4348C59.1215 40.8149 58.1947 41.0056 57.4393 41.195C57 41.2433 56.4884 41.0526 56.0491 41.0297C61.4614 40.8861 65.1661 35.8648 64.3624 30.8894C63.9714 29.4377 63.1919 28.1754 62.2409 26.9144C61.8512 26.3665 61.0945 26.0335 60.5346 25.4856C57.1461 23.3677 52.6618 23.7961 50.1023 26.5813C49.7434 26.9473 49.4092 27.3367 49.1019 27.747C50.4679 25.7475 52.6618 24.344 55.2937 23.9385C56.2205 23.9144 57.1714 24.0821 58.097 24.2487C62.1927 25.4856 65.2397 29.4377 64.5808 33.8182V33.817Z" fill="#D7DF23"/>
</svg>
