<svg width="184" height="64" viewBox="0 0 184 64" fill="none" xmlns="http://www.w3.org/2000/svg">
<path d="M50.5879 51C50.3792 50.9971 50.1741 50.9455 49.9885 50.8494L34.6177 42.1134C34.4315 42.0077 34.2762 41.8544 34.1678 41.6688C34.0593 41.4832 34.0014 41.272 34 41.0566V14.2071C33.9996 14.0484 34.0303 13.8912 34.0904 13.7446C34.1504 13.5979 34.2387 13.4647 34.35 13.3525C34.4613 13.2403 34.5936 13.1514 34.7391 13.0909C34.8847 13.0304 35.0407 12.9995 35.1981 13H65.9586C66.1161 12.9995 66.2721 13.0304 66.4177 13.091C66.5633 13.1515 66.6955 13.2404 66.8069 13.3526C66.9182 13.4648 67.0064 13.5981 67.0665 13.7448C67.1265 13.8915 67.1572 14.0487 67.1567 14.2074V41.0566C67.1553 41.272 67.0974 41.4831 66.9889 41.6686C66.8804 41.8541 66.7252 42.0074 66.539 42.113L51.1679 50.8494C50.9808 50.9625 50.7936 51 50.5875 51H50.5879ZM36.4152 40.3586L50.5875 48.3962L64.7602 40.3586V15.4333H36.4152V40.3583V40.3586Z" fill="black"/>
<path d="M50.5867 38.8494C50.378 38.8464 50.1728 38.7947 49.9873 38.6984L45.1196 35.9247C44.9334 35.8191 44.7782 35.6658 44.6698 35.4803C44.5613 35.2948 44.5034 35.0837 44.502 34.8683V29.7734H46.9168V34.1512L50.5867 36.2268L54.8739 33.7928L56.0533 35.9056L51.1857 38.6796C50.9796 38.7927 50.7924 38.8494 50.5867 38.8494Z" fill="black"/>
<path d="M50.5882 44.925C50.3796 44.9221 50.1746 44.8705 49.9891 44.7743L39.8599 39.0194C39.6737 38.9137 39.5185 38.7604 39.41 38.5749C39.3016 38.3894 39.2437 38.1783 39.2422 37.963V24.7932C39.2417 24.6345 39.2723 24.4773 39.3323 24.3305C39.3924 24.1838 39.4806 24.0504 39.5919 23.9382C39.7033 23.8259 39.8356 23.737 39.9812 23.6764C40.1268 23.6159 40.2828 23.585 40.4403 23.5855H55.3056V26.0195H41.6387V37.2646L50.5505 42.3212L59.4623 37.2646V32.0002H61.9148V37.963C61.9133 38.1783 61.8554 38.3894 61.7469 38.5749C61.6385 38.7604 61.4833 38.9137 61.2971 39.0194L51.1686 44.7743C50.9811 44.8874 50.7939 44.925 50.5882 44.925Z" fill="black"/>
<path d="M61.9134 27.3588H59.4982V20.7172H43.5098V18.2832H60.6967C60.8541 18.2827 61.0101 18.3137 61.1557 18.3742C61.3013 18.4347 61.4335 18.5236 61.5449 18.6358C61.6562 18.748 61.7445 18.8813 61.8045 19.028C61.8646 19.1747 61.8952 19.3319 61.8948 19.4906V27.3588H61.9134ZM78.6107 29.8743C78.6107 24.6773 82.4438 20.6757 87.7107 20.6757C90.8818 20.6757 93.6944 22.26 95.2108 24.761L91.764 26.7898C90.9919 25.4278 89.4754 24.622 87.7107 24.622C84.6222 24.622 82.6091 26.7065 82.6091 29.8743C82.6091 33.0425 84.6222 35.1266 87.7107 35.1266C89.4754 35.1266 91.0196 34.3208 91.764 32.9592L95.2108 34.988C93.7218 37.489 90.9092 39.0729 87.7107 39.0729C82.4438 39.0453 78.6107 35.0713 78.6107 29.8743ZM129.68 35.099V39.0173H117.85V20.6754H129.68V24.594H122.014V27.7346H128.77V31.7085H122.014V35.071H129.68V35.099ZM109.964 32.3197C111.977 31.2916 113.328 29.2352 113.328 26.9841C113.328 23.4823 110.543 20.6757 107.096 20.6757H99.8161V39.0449H103.98V33.0149H105.965L109.385 39.0449H113.852L109.964 32.32V32.3197ZM107.068 29.3461H103.952V24.622H107.068C108.199 24.622 109.137 25.6501 109.137 26.9841C109.137 28.3181 108.199 29.3461 107.068 29.3461ZM140.903 20.6757H134.203V38.9893H140.903C145.894 38.9893 149.727 35.0153 149.727 29.8187C149.727 24.6497 145.922 20.6757 140.903 20.6757ZM140.903 35.099H138.366V24.622H140.903C143.744 24.622 145.729 26.7062 145.729 29.8463C145.729 32.9868 143.771 35.099 140.903 35.099Z" fill="black"/>
</svg>
