<svg width="184" height="64" viewBox="0 0 184 64" fill="none" xmlns="http://www.w3.org/2000/svg">
<path d="M53.1526 12.1951C53.0042 12.2375 52.6544 12.2799 52.3789 12.2905C51.2766 12.3117 47.7154 13.2126 46.4224 13.7849C46.3058 13.8379 45.9772 13.9757 45.6805 14.0923C44.9068 14.3891 42.8612 15.3641 42.5433 15.5973C42.3949 15.6927 42.1511 15.8199 41.9921 15.8517C41.8331 15.8941 41.706 15.9683 41.706 16.0107C41.706 16.0531 41.6212 16.1166 41.5258 16.159C41.4198 16.1908 41.1972 16.318 41.017 16.4346C40.8475 16.5512 40.5931 16.689 40.4553 16.7526C40.3175 16.8056 40.0526 16.9751 39.8618 17.1235C39.671 17.2719 39.4802 17.3885 39.4484 17.3885C39.2047 17.3885 35.7919 19.8686 34.8274 20.7377C34.0431 21.4478 32.5911 22.9952 32.5911 23.1224C32.5911 23.1542 32.4957 23.3026 32.3685 23.4404C32.0505 23.8007 31.0966 25.3057 30.8211 25.8675C30.7045 26.1324 30.4713 26.5988 30.3229 26.9167C29.8036 27.9766 29.5916 29.1319 29.6446 30.4779C29.7082 31.8027 30.005 32.4917 30.9059 33.4032C31.8492 34.3464 32.856 34.7598 34.4458 34.8446C35.5375 34.8976 36.3218 34.8128 37.4135 34.5054C37.7632 34.41 38.2296 34.2934 38.4522 34.2298C38.6747 34.1769 38.9291 34.0921 39.0351 34.0285C39.2789 33.9013 40.6461 33.2866 40.7097 33.2866C40.9005 33.2866 43.1368 31.9193 45.2035 30.5415C46.5708 29.63 47.7684 28.8351 47.8744 28.7821C47.9698 28.7185 48.6163 28.337 49.3052 27.9236C49.9941 27.5209 50.842 27.0333 51.1918 26.8531C51.5416 26.673 52.0397 26.408 52.3047 26.2702C52.5696 26.143 53.0678 25.9099 53.4175 25.7827C53.7673 25.6449 54.2018 25.4647 54.3714 25.3905C54.5516 25.3163 54.806 25.1997 54.9543 25.1362C55.3677 24.9666 56.3004 24.797 57.2119 24.7334C59.1832 24.6062 60.5611 25.4753 61.2712 27.2983C61.4408 27.7328 61.4725 28.0932 61.4725 29.365C61.4725 30.9125 61.3348 31.7603 60.9214 32.7566C60.8366 32.958 60.72 33.2442 60.6564 33.3926C60.1265 34.6644 59.0348 36.4874 57.7842 38.1408C56.5971 39.7306 54.0429 42.3697 52.3577 43.7581C51.7747 44.2456 51.1282 44.7756 50.9268 44.9451C50.4817 45.3161 49.9623 45.6871 49.39 46.0686C49.1568 46.217 48.7753 46.4714 48.5421 46.6409C47.885 47.0861 46.1362 48.0188 45.1505 48.4427C44.8644 48.5699 44.4722 48.7395 44.2814 48.8243C44.1013 48.9091 43.8575 48.9727 43.7409 48.9727C43.6349 48.9727 43.3912 49.0257 43.2004 49.0892C42.5115 49.333 41.8119 48.8667 41.8119 48.1566C41.8119 47.2875 42.2253 46.7363 44.8326 44.1502C47.6518 41.3522 47.9592 40.9388 47.9592 39.879C47.9592 38.7873 47.4399 38.0454 46.274 37.4519C45.7653 37.1869 45.5745 37.1551 44.6842 37.1551C43.6455 37.1551 43.0414 37.3035 42.2889 37.7592C42.1193 37.8652 41.8543 38.003 41.706 38.0772C41.5576 38.1514 41.4198 38.2362 41.388 38.268C41.3562 38.2998 41.1442 38.4587 40.9111 38.6389C40.3493 39.0629 39.3636 40.0697 38.8019 40.8011C38.4098 41.3098 38.1236 41.7867 37.4559 43.0374C36.9047 44.0761 36.4066 46.005 36.4066 47.1285C36.4066 49.4072 37.5937 51.2302 39.4272 51.7495C39.9784 51.9085 42.2253 51.9085 42.999 51.7601C43.7621 51.6011 45.7547 50.9864 45.8818 50.8698C45.9454 50.8168 46.0514 50.7744 46.1362 50.7744C46.4118 50.7744 49.5596 49.174 50.6407 48.4745C50.8844 48.3155 51.16 48.1354 51.266 48.0718C51.3614 48.0188 51.8595 47.7114 52.3789 47.3935C52.8876 47.0755 53.3327 46.7787 53.3645 46.7469C53.3963 46.7045 53.7567 46.4396 54.1594 46.164C54.5728 45.8778 55.0497 45.5493 55.2193 45.4327C55.3995 45.3055 55.8976 44.924 56.3322 44.5742C59.0878 42.3803 61.5255 40.0379 62.9458 38.215C63.1789 37.9288 63.3909 37.6638 63.4227 37.632C63.5075 37.5684 64.2282 36.5298 64.7263 35.7455C64.9489 35.4169 65.2881 34.834 65.4789 34.4524C65.6802 34.0709 65.9558 33.5515 66.0936 33.2866C66.2314 33.0216 66.5281 32.3327 66.7613 31.7498C66.9839 31.1668 67.2064 30.5945 67.2488 30.4779C67.5456 29.7254 68.0014 27.7858 68.2027 26.3974C68.4253 24.8288 68.2557 22.2533 67.8212 20.8331C67.641 20.2501 67.5986 20.1442 67.2064 19.2963C66.3586 17.4733 65.0019 15.8199 63.4439 14.7388C63.2319 14.5904 62.967 14.3891 62.8504 14.2725C62.4688 13.9333 60.5293 13.0642 59.3952 12.7357C58.7911 12.5555 57.8902 12.3647 57.392 12.2905C56.2474 12.1421 53.5023 12.0679 53.1526 12.1951Z" fill="#FF0000"/>
<path d="M150.862 20.7683C150.83 20.7895 150.343 20.8849 149.76 20.9803C149.177 21.0651 148.223 21.2241 147.64 21.33L146.58 21.5102V31.261C146.58 41.8491 146.559 41.404 147.184 42.7288C147.396 43.1846 147.693 43.5767 148.149 43.9901C149.272 45.0182 150.322 45.3361 152.558 45.3467C154.466 45.3467 154.391 45.4209 154.349 43.6615L154.317 42.3897L153.501 42.3155C152.049 42.1883 151.35 41.6054 151.191 40.3971C151.148 40.0368 151.116 35.5005 151.127 30.3283C151.138 21.3724 151.116 20.5139 150.862 20.7683Z" fill="#FF0000"/>
<path d="M121.515 20.9802C119.162 21.3299 118.378 21.4783 118.283 21.5949C118.209 21.6797 118.198 25.0607 118.23 31.5259C118.283 40.556 118.304 41.3721 118.474 41.8066C118.876 42.8347 119.088 43.1951 119.629 43.7356C120.742 44.8485 122.162 45.3042 124.494 45.3042C125.787 45.3042 125.967 45.283 126.052 45.1134C126.158 44.912 126.211 43.0679 126.126 42.6439C126.062 42.379 126.02 42.3684 125.225 42.3048C124.218 42.2412 123.625 41.902 123.211 41.1707L122.946 40.6938L122.914 35.2036C122.893 31.1125 122.914 29.6711 123.01 29.5545C123.105 29.4379 123.466 29.4061 124.6 29.4061C126.348 29.4061 126.2 29.5757 126.158 27.5514L126.126 26.1735L124.642 26.1205C123.826 26.0887 123.095 26.0252 123.031 25.9828C122.925 25.9192 122.893 25.2726 122.893 23.3543V20.8212L122.66 20.8318C122.522 20.8424 122.014 20.906 121.515 20.9802Z" fill="#FF0000"/>
<path d="M84.7884 25.7599C83.9935 25.8341 82.0858 26.2899 81.5028 26.5442C81.3862 26.5972 81.1743 26.6714 81.0259 26.7138C80.5595 26.841 79.0121 27.6147 79.0121 27.7207C79.0121 27.7737 79.1075 28.0175 79.2135 28.2718C79.913 29.8086 80.178 30.3598 80.231 30.3598C80.2628 30.3598 80.3688 30.3174 80.4748 30.2644C81.0153 29.9888 81.6724 29.7238 82.1917 29.5649C82.5097 29.4695 82.8913 29.3423 83.0396 29.2893C83.6332 29.0773 85.2124 28.9713 85.9437 29.0879C87.3851 29.3211 87.9151 29.9888 87.9998 31.6952C88.0422 32.6385 88.0422 32.6597 87.7985 32.7233C87.6607 32.7657 86.6856 32.7975 85.6363 32.7975C83.1138 32.7975 82.3401 32.9459 80.7079 33.7408C79.3089 34.4191 78.2702 35.7015 77.7721 37.3549C77.5177 38.2346 77.5495 39.8774 77.8357 40.7465C78.7896 43.6294 81.0577 45.3145 84.2161 45.4841C87.0884 45.6431 90.0454 44.7846 91.9426 43.2584L92.6315 42.6967L92.6633 37.09C92.6951 30.5929 92.6845 30.3704 91.9002 28.7806C91.5504 28.0599 90.374 26.9152 89.6426 26.5972C89.3035 26.4382 88.9325 26.2793 88.8159 26.2263C88.021 25.8765 86.0073 25.6433 84.7884 25.7599ZM87.9151 35.9771C87.9786 36.0619 88.021 37.3231 88.021 38.8493C88.021 41.8594 88.0634 41.6686 87.2791 42.0819C86.9824 42.2409 86.6538 42.2727 85.6257 42.2833H84.3433L83.8134 41.923C83.5272 41.7322 83.188 41.4142 83.0714 41.234C82.2871 40.0894 82.3401 38.0438 83.1668 37.037C83.4106 36.7296 84.3433 36.0831 84.5129 36.0831C84.6189 36.0831 84.7354 36.0407 84.799 35.9877C84.9474 35.8287 85.435 35.7863 86.675 35.8075C87.5653 35.8181 87.8409 35.8499 87.9151 35.9771Z" fill="#FF0000"/>
<path d="M111.232 26.016C109.123 26.5142 107.438 27.4151 105.742 28.9625L105.297 29.3652V37.1023C105.297 41.3524 105.297 44.9135 105.297 45.0195C105.297 45.1891 105.456 45.1997 107.607 45.1785L109.907 45.1467L109.939 37.7594L109.96 30.3827L110.363 30.0647C110.84 29.6832 111.073 29.5666 111.688 29.3546C112.419 29.1108 113.564 28.9943 114.422 29.0896C114.846 29.132 115.249 29.1532 115.313 29.1214C115.387 29.1002 115.578 28.7399 115.747 28.3159C115.906 27.892 116.161 27.3409 116.288 27.0865C116.637 26.4188 116.606 26.2492 116.139 26.1432C115.917 26.0902 115.514 25.9948 115.228 25.9312C114.475 25.7405 112.175 25.7935 111.232 26.016Z" fill="#FF0000"/>
<path d="M134.283 26.0357C133.933 26.0886 133.605 26.184 133.552 26.237C133.488 26.29 133.382 26.3324 133.297 26.3324C133.212 26.3324 132.831 26.4808 132.46 26.6716C131.644 27.0743 130.393 28.2296 129.863 29.0881C129.397 29.8406 128.856 30.9641 128.772 31.3668C128.729 31.5364 128.666 31.7802 128.613 31.8967C128.57 32.0133 128.443 32.4691 128.337 32.9036C128.051 34.0483 128.051 37.7154 128.326 38.7859C128.581 39.7716 129.153 41.2766 129.259 41.2766C129.312 41.2766 129.355 41.3296 129.355 41.3932C129.355 41.7959 130.616 43.3963 131.506 44.1171C131.898 44.435 132.778 44.8908 133.435 45.1133C134.145 45.3571 135.714 45.6221 136.413 45.6221C137.918 45.6221 140.632 44.9755 141.532 44.4032C141.744 44.276 142.031 44.1277 142.179 44.0853C142.497 43.9899 143.196 43.5553 143.281 43.4069C143.377 43.2586 142.19 40.8527 142.031 40.8527C141.956 40.8527 141.766 40.948 141.617 41.0646C141.469 41.1812 141.289 41.2766 141.204 41.2766C141.13 41.2766 140.971 41.3402 140.854 41.425C140.738 41.4992 140.186 41.7217 139.635 41.9125C138.692 42.2411 138.533 42.2623 137.145 42.2729C135.83 42.2729 135.608 42.2517 135.184 42.0503C133.7 41.3402 132.852 39.549 132.852 37.1325C132.852 36.6132 132.863 36.1786 132.884 36.168C132.895 36.1468 135.247 36.115 138.098 36.0832L143.292 36.0302L143.26 34.9704C143.196 32.893 142.645 30.095 142.168 29.459C142.126 29.3954 141.978 29.1305 141.84 28.8655C141.267 27.7314 140.059 26.7564 138.628 26.2794C137.579 25.9191 135.661 25.8131 134.283 26.0357ZM136.562 29.406C137.007 29.5226 137.939 30.2751 137.939 30.5083C137.939 30.5719 138.014 30.7627 138.098 30.9217C138.342 31.3986 138.533 32.9672 138.363 33.1686C138.257 33.3064 137.844 33.3276 135.703 33.3276H133.17L133.106 33.0626C132.969 32.5221 133.34 31.07 133.764 30.5083C134.23 29.883 134.643 29.565 135.258 29.3848C135.597 29.2895 135.926 29.2259 136 29.2471C136.064 29.2683 136.318 29.3424 136.562 29.406Z" fill="#FF0000"/>
<path d="M97.7742 18.5744C96.9687 18.9877 96.7249 19.1891 96.3751 19.7084C96.036 20.2278 96.0254 20.2702 96.0254 21.3512V22.4747L96.4281 23.0258C96.9051 23.6723 97.223 23.9055 97.9226 24.1493C98.8658 24.4566 99.6819 24.3401 100.625 23.7465C101.759 23.0258 102.151 21.1816 101.463 19.825C101.219 19.3481 101.007 19.1255 100.371 18.7227C99.7985 18.3518 98.3465 18.267 97.7742 18.5744Z" fill="#FF0000"/>
<path d="M100.371 26.2266C100.201 26.2795 99.724 26.3749 99.3107 26.4279C98.9079 26.4809 98.166 26.5869 97.6679 26.6611C97.1697 26.7247 96.7352 26.8201 96.6822 26.8519C96.5868 26.9367 96.5762 44.9439 96.661 45.1029C96.7034 45.1558 97.6467 45.1982 98.8867 45.1982C101.049 45.1982 101.059 45.1982 101.112 44.9545C101.144 44.8273 101.155 40.5454 101.144 35.4474C101.112 26.2584 101.112 26.1736 100.9 26.1524C100.784 26.1418 100.551 26.1736 100.371 26.2266Z" fill="#FF0000"/>
</svg>
