<svg width="184" height="64" viewBox="0 0 184 64" fill="none" xmlns="http://www.w3.org/2000/svg">
<path d="M58.1903 35.888C58.1903 37.5366 58.1903 39.1766 58.1903 40.8251C58.1903 42.0358 57.3489 42.9288 56.2069 42.9373C55.0993 42.9459 54.2321 42.0272 54.2321 40.8165C54.2235 37.8285 54.2149 34.8319 54.2235 31.8439C54.2235 30.6418 53.7512 29.7145 52.7381 29.062C51.7506 28.4266 50.7203 28.4352 49.7071 28.9675C48.7111 29.4913 48.1959 30.3499 48.1873 31.4661C48.1702 34.3425 48.1788 37.2275 48.1788 40.1039C48.1788 40.4216 48.1873 40.7393 48.1358 41.057C47.9727 42.156 47.0625 42.8858 45.9721 42.8257C44.9332 42.7656 44.1604 41.907 44.1518 40.7736C44.1432 38.8846 44.1518 36.9957 44.1518 35.1067C44.1518 34.0076 44.1003 32.9 44.1604 31.801C44.272 29.8862 42.8725 28.4609 41.138 28.4438C39.5667 28.4352 37.901 29.9979 37.9611 31.8783C38.0556 34.8491 37.9955 37.8199 37.9869 40.7994C37.9869 41.8211 37.3343 42.6025 36.3641 42.8C35.514 42.9717 34.4923 42.3964 34.1317 41.5464C34.02 41.2802 34.0114 40.9968 34.0114 40.7221C34.0114 37.5967 33.9857 34.4799 34.0114 31.3545C34.0544 26.9068 38.3561 23.5925 42.7007 24.5971C43.8942 24.8719 44.9503 25.3871 45.8004 26.28C46.0579 26.5462 46.2125 26.5634 46.5216 26.3144C48.9773 24.3138 51.7335 23.8931 54.5154 25.3699C56.7392 26.5462 58.1817 28.4695 58.1989 31.1742C58.2075 32.7455 58.1989 34.3168 58.1903 35.888C58.1989 35.888 58.1989 35.888 58.1903 35.888Z" fill="#F43198"/>
<path d="M114.876 34.2221C114.876 32.9857 114.867 31.7579 114.876 30.5215C114.902 26.0738 114.979 21.6261 114.936 17.1784C114.919 15.9248 116.147 14.9117 117.374 15.0061C118.662 15.1006 119.469 15.9592 119.435 17.2986C119.358 20.0291 119.306 22.7509 119.246 25.4813C119.246 25.6531 119.126 25.8935 119.341 25.9879C119.504 26.0566 119.615 25.8334 119.753 25.7475C122.449 23.91 126.905 24.1419 129.095 27.087C129.979 28.2719 130.254 29.6714 130.254 31.1139C130.262 34.3337 130.237 37.545 130.211 40.7648C130.202 42.0013 129.593 42.7139 128.451 42.9372C127.48 43.1261 126.613 42.6281 126.21 41.675C126.072 41.3487 126.081 41.0224 126.081 40.679C126.072 37.8541 126.089 35.0292 126.064 32.2044C126.055 31.3286 126.004 30.4442 125.523 29.6628C125.188 29.1133 124.759 28.7269 124.097 28.5981C123.35 28.4522 122.612 28.4436 121.874 28.581C120.199 28.8901 119.512 30.0664 119.281 31.6205C119.109 32.7281 119.006 33.8443 119.014 34.9691C119.032 36.8924 119.032 38.8244 119.014 40.7477C118.997 42.2503 117.924 43.169 116.49 42.9286C115.554 42.7654 114.893 41.9669 114.884 40.928C114.867 38.7041 114.884 36.4803 114.884 34.2479C114.859 34.2221 114.867 34.2221 114.876 34.2221Z" fill="#F2329B"/>
<path d="M89.8649 34.7716C88.0703 34.7716 86.2758 34.7802 84.4813 34.763C84.1035 34.763 83.9232 34.8317 83.9747 35.261C84.4469 38.9531 88.1047 40.284 90.6805 38.8501C91.3503 38.4808 91.771 37.8369 92.2862 37.3131C92.9645 36.6176 94.0464 36.506 94.7333 37.0469C95.6949 37.8025 95.9439 38.79 95.3772 39.7001C94.8363 40.5759 94.115 41.2971 93.2221 41.7694C90.1825 43.3664 87.0571 43.6412 83.9489 42.0356C82.1115 41.0825 80.9094 39.494 80.2912 37.5364C79.2694 34.3165 79.3381 31.1482 81.2013 28.2117C82.5408 26.0995 84.5328 24.9661 87.0486 24.7514C88.3279 24.6398 89.5815 24.6742 90.8179 25.0434C93.2392 25.756 94.7161 27.4389 95.5919 29.7229C96.1242 31.1224 96.3045 32.5821 96.1586 34.0675C96.0985 34.6857 95.8838 34.8746 95.257 34.8746C93.4625 34.8746 91.668 34.8746 89.8734 34.8746C89.8648 34.8403 89.8649 34.8059 89.8649 34.7716Z" fill="#F33297"/>
<path d="M73.9469 34.7716C71.122 34.7716 68.2971 34.7716 65.4809 34.7716C65.1632 34.7716 64.8541 34.7459 64.9313 35.2181C65.1803 36.8667 65.9016 38.2147 67.4643 38.9445C68.9239 39.6314 70.4008 39.6057 71.8003 38.7471C72.2468 38.4723 72.5989 38.0773 72.9337 37.6652C73.2085 37.3303 73.5004 37.0212 73.9211 36.8581C74.8485 36.506 75.6727 36.7465 76.248 37.545C76.8233 38.3435 76.7288 39.288 76.0591 40.1209C74.9687 41.4689 73.5691 42.3018 71.912 42.7225C69.731 43.272 67.5673 43.2205 65.498 42.2846C63.4202 41.3401 62.0893 39.6658 61.3852 37.5622C60.4579 34.8146 60.4665 32.024 61.6686 29.3537C62.9994 26.3915 65.3864 24.8631 68.6234 24.7086C70.2462 24.6313 71.8433 24.7858 73.2858 25.6187C75.6126 26.9581 76.7546 29.0875 77.1667 31.6634C77.2784 32.3503 77.2955 33.0372 77.2784 33.7327C77.2612 34.6342 77.0294 34.8747 76.145 34.8832C75.7672 34.8832 75.398 34.8832 75.0202 34.8832C74.6681 34.8832 74.3075 34.8832 73.9555 34.8832C73.9469 34.8403 73.9469 34.806 73.9469 34.7716Z" fill="#F33297"/>
<path d="M105.517 24.6998C107.26 24.7084 108.926 25.0776 110.48 25.8933C111.433 26.3913 111.837 27.5504 111.382 28.5293C110.953 29.4566 109.871 29.8429 108.866 29.3793C107.715 28.8469 106.565 28.3919 105.268 28.4863C105.062 28.5035 104.856 28.5121 104.659 28.555C104.126 28.6924 103.68 28.9414 103.568 29.5424C103.448 30.1864 103.843 30.5642 104.341 30.839C105.38 31.4142 106.522 31.7062 107.638 32.0754C108.823 32.4703 109.965 32.9254 110.944 33.784C112.507 35.1664 112.824 36.8751 112.369 38.7726C111.863 40.9278 110.403 42.1814 108.308 42.7309C105.294 43.5208 102.512 42.8253 99.8591 41.3657C98.8974 40.8419 98.6484 39.6227 99.2323 38.5666C99.7045 37.7165 100.846 37.3731 101.774 37.8625C102.839 38.4292 103.903 38.953 105.122 39.0903C105.852 39.1762 106.582 39.2191 107.278 38.9186C107.81 38.6868 108.153 38.3004 108.213 37.6908C108.265 37.1155 107.939 36.7892 107.484 36.5402C106.342 35.922 105.105 35.5614 103.869 35.2008C102.667 34.8573 101.568 34.3164 100.606 33.5264C99.1378 32.333 98.657 29.9546 99.4641 28.1429C100.52 25.7731 102.512 24.8973 104.934 24.6826C105.105 24.6826 105.311 24.6998 105.517 24.6998Z" fill="#F43296"/>
<path d="M89.0831 31.337C87.632 31.337 86.1724 31.3284 84.7213 31.337C84.3521 31.337 84.249 31.2168 84.3864 30.8648C85.5456 27.997 88.9114 27.6449 90.6887 28.9157C91.4357 29.4481 91.8393 30.2122 92.1484 31.0537C92.2686 31.3714 92.1055 31.4487 91.8221 31.4401C90.912 31.4315 89.9932 31.4401 89.0831 31.4401C89.0831 31.4057 89.0831 31.3714 89.0831 31.337Z" fill="#FDFCFA"/>
<path d="M69.0763 31.3284C67.9 31.3284 66.7237 31.3198 65.5474 31.337C65.2125 31.337 65.1267 31.2597 65.2469 30.9162C65.8222 29.2934 67.2732 28.306 69.0678 28.2373C71.137 28.16 72.3906 29.3965 72.8972 30.8218C73.1033 31.3885 73.0775 31.4314 72.4851 31.4314C71.3431 31.4314 70.2097 31.4314 69.0678 31.4314C69.0763 31.4056 69.0763 31.3713 69.0763 31.3284Z" fill="#FDFDFD"/>
<path d="M142.3 25.1294C136.856 24.9234 132.761 29.3796 132.829 33.8273C132.623 39.0048 136.942 43.2035 141.587 43.3065C147.048 43.4267 150.921 39.0563 150.998 34.394C151.084 29.0877 146.816 25.3012 142.3 25.1294ZM146.112 36.6093C145.133 38.7987 143.141 39.8377 140.772 39.4599C138.659 39.125 137.277 37.6997 136.873 35.4759C136.539 33.647 136.796 31.9297 137.895 30.41C138.84 29.1049 140.162 28.5124 141.725 28.6069C144.515 28.4867 146.207 30.4958 146.542 32.9859C146.705 34.2394 146.636 35.4587 146.112 36.6093Z" fill="#F43297"/>
</svg>
