<svg width="184" height="64" viewBox="0 0 184 64" fill="none" xmlns="http://www.w3.org/2000/svg">
<path d="M111.412 22.9095L108.94 18.5897L104.546 20.7621L102.074 16.4423L97.679 18.6147L95.2069 14.2949L90.8122 16.4673L88.3401 12.1474L83.9454 14.3198L81.4734 10L77.0786 12.1724L67.7148 43.4349L79.0513 47.0057C79.8004 44.4837 82.0976 42.6359 84.7944 42.6359C88.1154 42.6359 90.8122 45.4076 90.8122 48.8285V48.9533C90.8371 49.5027 90.7872 50.077 90.6124 50.6263L102.149 54.272" fill="#D70B17"/>
<path d="M77.4265 40.8381C76.8273 40.7382 76.4277 40.2138 76.4277 39.5895V24.2329C76.4277 23.5088 76.9771 22.9595 77.6762 22.9595H88.4134C88.688 22.9595 88.9627 22.9844 89.2374 23.0344C91.5346 23.4589 93.2326 25.5064 93.2326 27.9285V39.5895C93.2326 39.9391 93.1077 40.2637 92.858 40.5134C92.6333 40.7382 92.3087 40.888 91.9841 40.888L91.7594 40.863C91.1601 40.7631 90.7606 40.2388 90.7606 39.6145V27.9785C90.7606 26.8049 89.9366 25.8061 88.8129 25.6063L88.4134 25.5564H86.0662V39.6145C86.0662 39.9641 85.9413 40.2887 85.6916 40.5384C85.4669 40.7631 85.1423 40.913 84.8177 40.913L84.593 40.888C83.9937 40.7881 83.5942 40.2637 83.5942 39.6395V25.5564H78.8998V39.6145C78.8998 39.9641 78.7749 40.2887 78.5252 40.5134C78.3005 40.7382 77.9759 40.888 77.6513 40.888L77.4265 40.8381Z" fill="white"/>
<path d="M95.282 47.5303C94.6827 47.4304 94.2832 46.9061 94.2832 46.2818C94.2832 45.9322 94.4081 45.6076 94.6328 45.3829C94.8575 45.1581 95.1821 45.0083 95.5067 45.0083C96.5555 45.0083 97.4544 44.3092 97.754 43.2854L99.0275 38.8907L94.8575 24.4829C94.6578 23.8087 95.0323 23.0846 95.6815 22.8599L96.2309 22.8349C96.6803 22.9098 97.0549 23.2594 97.2047 23.7088L100.301 34.446L103.447 23.7088C103.597 23.1096 104.221 22.71 104.871 22.8349L104.945 22.8599C105.62 23.0846 105.994 23.8087 105.769 24.4829L101.475 39.2652L100.126 44.0095C99.7766 45.1082 99.1773 45.9822 98.3783 46.5814C97.5293 47.2307 96.5305 47.5802 95.4818 47.5802L95.282 47.5303Z" fill="white"/>
<path d="M18.0487 40.6884C17.4245 40.5636 17 40.0392 17 39.39V16.4675C17 16.0929 17.1249 15.7683 17.3746 15.5186C17.5993 15.2689 17.9489 15.144 18.2984 15.144L18.5232 15.169C19.1474 15.2939 19.5969 15.8182 19.5969 16.4675V22.9846H22.044C22.3436 22.9846 22.6183 23.0096 22.9179 23.0596C25.315 23.4841 27.0629 25.6315 27.0629 28.1535V35.5446C27.0629 38.3912 24.8156 40.7134 22.044 40.7134H18.3234L18.0487 40.6884ZM19.5719 38.0416H22.019C23.3674 38.0416 24.4661 36.918 24.4661 35.5196V28.1285C24.4661 26.905 23.6171 25.8562 22.4435 25.6565L22.019 25.6065H19.5719V38.0416Z" fill="#5B5B5B"/>
<path d="M34.456 40.788C32.0589 40.3635 30.3359 38.2161 30.3359 35.6941V28.0033C30.3359 26.605 30.8603 25.3316 31.8092 24.3327C32.758 23.3589 34.0065 22.8096 35.3549 22.8096C35.6546 22.8096 35.9292 22.8345 36.2289 22.8845C38.626 23.309 40.3739 25.4564 40.3739 27.9784V35.6692C40.3739 37.0425 39.8495 38.341 38.9007 39.3398C37.9518 40.3136 36.7033 40.838 35.3799 40.838C35.0553 40.8629 34.7556 40.838 34.456 40.788ZM35.7544 25.5063L35.33 25.4564C33.9566 25.4564 32.8829 26.5551 32.8829 27.9784V35.6692C32.8829 36.8927 33.7319 37.9414 34.8805 38.1412L35.305 38.1911C36.6534 38.1911 37.7521 37.0675 37.7521 35.6692V27.9784C37.777 26.7548 36.928 25.7311 35.7544 25.5063Z" fill="#5B5B5B"/>
<path d="M47.788 40.788C45.3909 40.3385 43.668 38.216 43.668 35.6941V28.0033C43.668 25.1567 45.9153 22.8345 48.687 22.8345C48.9866 22.8345 49.2613 22.8594 49.5609 22.9094C51.9331 23.3339 53.681 25.4813 53.681 27.9783V35.6691C53.681 37.0425 53.1566 38.3409 52.2077 39.3397C51.2589 40.3135 50.0104 40.8379 48.662 40.8379C48.3623 40.8629 48.0627 40.8379 47.788 40.788ZM49.0865 25.5063L48.662 25.4563C47.2886 25.4563 46.2149 26.555 46.2149 27.9783V35.6691C46.2149 36.8926 47.0639 37.9414 48.2125 38.1411L48.637 38.1911C49.2862 38.1911 49.8855 37.9414 50.36 37.4669C50.8344 36.9925 51.0841 36.3683 51.0841 35.6691V27.9783C51.1091 26.7548 50.2601 25.731 49.0865 25.5063Z" fill="#5B5B5B"/>
<path d="M58.0253 40.8383C57.4011 40.7384 56.9766 40.189 56.9766 39.5398V16.4675C56.9766 16.0929 57.1014 15.7683 57.3511 15.5186C57.6008 15.2689 57.9254 15.144 58.275 15.144L58.4997 15.169C59.124 15.2939 59.5735 15.8182 59.5735 16.4675V30.1261L65.4914 23.2843C65.791 22.9597 66.2405 22.7849 66.6899 22.8848L67.3391 23.1844C67.8635 23.6838 67.9135 24.5078 67.439 25.0572L62.9194 30.176L67.5639 38.9156C67.7387 39.2152 67.7636 39.5648 67.6887 39.8894C67.5889 40.214 67.3641 40.5136 67.0645 40.6884C66.8148 40.8383 66.5151 40.8882 66.2155 40.8383C65.816 40.7633 65.5163 40.5386 65.3166 40.214L61.1466 32.3235L59.5485 34.1213V39.5398C59.5485 39.8894 59.4236 40.239 59.1739 40.4887C58.9242 40.7384 58.5996 40.8632 58.275 40.8632L58.0253 40.8383Z" fill="#5B5B5B"/>
<path d="M114.784 40.8136C113.361 40.5639 112.162 39.6899 111.438 38.3915C111.263 38.0918 111.238 37.7173 111.313 37.3677C111.413 37.0181 111.613 36.7434 111.913 36.5687C112.162 36.4188 112.462 36.3689 112.762 36.4188C113.136 36.4938 113.461 36.7185 113.66 37.0681C114.01 37.6673 114.534 38.0419 115.184 38.1667C115.908 38.2916 116.557 38.0918 117.081 37.5924C117.581 37.118 117.83 36.4438 117.781 35.7696C117.756 35.0705 117.406 34.4462 116.857 34.0467L113.386 31.4997C112.237 30.6757 111.538 29.3773 111.413 27.904C111.338 26.4058 111.888 25.0075 112.911 24.0586C113.935 23.0598 115.333 22.6104 116.732 22.8101C118.18 23.0848 119.379 23.9338 120.053 25.1573C120.203 25.457 120.253 25.8066 120.178 26.1561C120.078 26.5057 119.878 26.8054 119.578 26.9552C119.329 27.105 119.029 27.1549 118.729 27.105C118.355 27.0301 118.03 26.8054 117.83 26.4807C117.531 25.9564 117.006 25.5818 116.357 25.457C115.708 25.3571 115.084 25.5319 114.609 25.9813C114.16 26.4058 113.91 27.0301 113.96 27.7043C113.985 28.3285 114.335 28.9528 114.859 29.3024L118.33 31.7994C119.528 32.6733 120.253 34.0467 120.327 35.5449C120.452 37.0431 119.878 38.4914 118.779 39.4902C117.731 40.489 116.282 40.9634 114.834 40.7636" fill="#5B5B5B"/>
<path d="M124.746 40.8627C124.121 40.7378 123.672 40.1885 123.672 39.5642V16.4919C123.672 16.1423 123.822 15.7927 124.071 15.543C124.321 15.2933 124.646 15.1685 124.97 15.1685L125.195 15.1934C125.819 15.3183 126.244 15.8426 126.244 16.4919V23.0091H128.691C128.991 23.0091 129.29 23.034 129.565 23.084C131.962 23.5085 133.685 25.6559 133.685 28.1779V39.5642C133.685 40.3133 133.111 40.8876 132.411 40.8876L132.187 40.8627C131.562 40.7628 131.113 40.2134 131.113 39.5642V28.1779C131.113 26.9543 130.264 25.9056 129.115 25.7058L128.666 25.6559H126.219V39.5642C126.219 40.3133 125.645 40.8876 124.92 40.8876L124.746 40.8627Z" fill="#5B5B5B"/>
<path d="M141.101 40.788C138.703 40.3635 136.98 38.216 136.98 35.6941V28.0033C136.98 25.1567 139.228 22.8345 141.999 22.8345C142.299 22.8345 142.574 22.8594 142.873 22.9094C145.271 23.3339 147.018 25.4813 147.018 28.0033V35.6941C147.018 37.0674 146.494 38.3659 145.545 39.3647C144.596 40.3385 143.348 40.8629 142.024 40.8629C141.7 40.8629 141.4 40.8379 141.101 40.788ZM142.424 25.5312L141.999 25.4813C141.35 25.4813 140.726 25.731 140.277 26.2054C139.827 26.6799 139.577 27.3041 139.577 27.9783V35.6691C139.577 36.8926 140.426 37.9414 141.575 38.1411L141.999 38.1911C142.649 38.1911 143.248 37.9414 143.722 37.4669C144.197 36.9925 144.447 36.3683 144.447 35.6691V27.9783C144.422 26.7797 143.573 25.731 142.424 25.5312Z" fill="#5B5B5B"/>
<path d="M166.795 24.458C166.87 24.1084 166.82 23.7838 166.67 23.4841C166.495 23.1845 166.196 22.9597 165.846 22.8848L165.621 22.8599C165.047 22.8599 164.523 23.2594 164.373 23.8587C164.373 23.9086 162.974 29.6767 161.901 34.0714L161.876 34.1713L161.851 34.0714C160.802 29.7017 159.379 23.9336 159.354 23.8587C159.254 23.3343 158.879 22.9597 158.355 22.8848L158.13 22.8599C157.556 22.8599 157.081 23.2594 156.907 23.8587C156.882 23.9086 155.508 29.6767 154.435 34.0714L154.41 34.1713L154.385 34.0714C153.336 29.6767 151.913 23.9336 151.913 23.8587C151.788 23.3593 151.388 22.9597 150.914 22.8848L150.414 22.9098C149.74 23.0846 149.316 23.7838 149.491 24.4829L153.211 39.8645C153.361 40.3639 153.735 40.7634 154.21 40.8383L154.41 40.8633C155.009 40.8633 155.508 40.4638 155.633 39.8645C155.658 39.8146 157.056 34.0465 158.13 29.6517L158.155 29.5519L158.18 29.6517C159.279 34.0714 160.652 39.8645 160.652 39.8645C160.802 40.3639 161.177 40.7384 161.651 40.8383L161.851 40.8633C162.45 40.8633 162.949 40.4638 163.074 39.8645" fill="#5B5B5B"/>
</svg>
