<svg width="184" height="64" viewBox="0 0 184 64" fill="none" xmlns="http://www.w3.org/2000/svg">
<path d="M117.756 57.9796C120.911 57.9388 123.903 56.7144 126.074 54.5101C128.287 52.3061 129.516 49.3268 129.516 46.2245V17.8572C129.516 14.7146 128.287 11.7347 126.115 9.49002C123.903 7.28573 120.911 6.02051 117.756 6.02051H89.1122C85.957 6.06143 82.9655 7.28573 80.7937 9.49002C78.5809 11.7349 77.3516 14.7147 77.3516 17.8572V46.2654C77.3925 52.7145 82.6377 57.9388 89.1122 57.9796" fill="#CF381E"/>
<path d="M109.642 33.613C108.535 37.2864 110.338 40.9598 114.149 39.4907C113.043 42.1437 111.199 46.1027 111.199 50.2252C111.199 50.2252 111.199 53.0008 113.248 53.6947C113.248 53.6947 116.116 54.3886 115.502 51.858C115.051 50.2661 114.929 48.6337 115.133 47.001C115.83 43.613 116.895 40.307 118.289 37.1234C118.289 37.1234 122.673 28.0212 125.214 23.7765C125.214 23.7765 126.279 21.6133 124.107 21.6133C123.452 21.6133 122.837 21.9398 122.427 22.4702L116.24 33.4497C115.297 35.1641 114.396 35.6949 113.699 35.6949C112.142 35.6949 112.47 33.205 112.716 32.3067C113.412 29.2455 114.519 26.3073 115.994 23.4904C117.1 21.0824 114.887 20.8785 114.887 20.8785C113.494 20.5111 112.429 22.797 112.429 22.797L109.97 27.7764C108.372 30.552 106.61 33.205 104.725 35.7765C104.725 35.7765 104.397 36.1845 104.151 36.0215C103.905 35.8173 104.028 35.4093 104.028 35.4093C104.438 32.0213 105.134 28.6744 106.077 25.3682C106.118 25.1639 106.159 25.001 106.159 24.7969C106.2 24.3478 106.077 23.8989 105.79 23.5721C105.503 23.2048 105.094 23.0007 104.643 23.0007C103.536 22.8785 103.004 23.4091 102.021 24.5925C99.8488 27.2458 97.3078 31.2456 96.0785 33.0417C95.9558 33.2456 95.7098 33.2048 95.7098 32.9191C95.7098 32.1026 98.5784 23.2863 98.5784 23.2863C98.5784 23.2863 98.9058 22.062 97.9228 21.6539C97.9228 21.6539 96.4069 20.7151 95.1769 22.5517L89.2763 30.552C88.8256 31.1642 88.5798 30.9603 88.5798 30.9603V30.4296L89.5223 25.2052C90.26 21.2053 88.8667 21.0011 87.9652 20.8379C87.3094 20.8379 86.613 21.0418 86.039 21.4094C84.1952 22.3072 82.8019 25.94 82.8019 25.94C82.8019 25.94 82.3921 27.246 83.2935 27.7764C83.5806 27.9396 83.9083 28.0621 84.2361 28.0214C85.5474 27.9397 85.7934 25.5315 86.7359 25.5315C86.8998 25.5315 86.8998 25.7358 86.8998 25.7767L83.8674 38.4707C83.6625 39.2051 83.9903 39.9805 84.6052 40.3889C85.0149 40.6339 85.4656 40.6746 85.9163 40.5928C86.3262 40.4705 86.6949 40.1848 86.9407 39.8175L88.047 38.1032C89.6453 35.2867 92.5957 31.2459 92.8826 31.2459C93.0054 31.2459 93.0468 31.2459 93.0468 31.3681L91.94 38.8379C91.8169 39.4909 92.186 40.1846 92.8006 40.4704C93.3742 40.6743 93.989 40.6335 94.5214 40.3478C95.1362 39.8581 95.6691 39.2457 96.0379 38.5518C96.6522 37.5723 99.6028 34.1028 101.406 30.9192C101.529 30.715 101.652 30.9192 101.611 31.0418C101.242 32.7152 100.955 37.164 100.914 38.2661C100.832 40.4294 102.512 40.6743 102.553 40.6743C103.66 40.7559 104.725 40.2659 105.34 39.3683" fill="white"/>
<path d="M21.4582 38.5513H18.1798V31.2452C18.2209 30.4289 18.0568 29.6124 17.6882 28.9187C17.3194 28.388 16.6638 28.0615 16.0081 28.1431C15.4343 28.1431 14.9017 28.2657 14.451 28.5515C13.959 28.878 13.5494 29.3267 13.2627 29.8167V38.5511H9.98438V25.2864H11.8282L13.0577 27.082C13.3855 26.7963 13.7132 26.5513 14.041 26.3066C14.3688 26.1023 14.6966 25.9394 15.0655 25.7759C15.4342 25.6125 15.8032 25.4901 16.1719 25.4086C16.5406 25.327 16.9505 25.2864 17.3603 25.2864C17.811 25.2864 18.2617 25.3268 18.6714 25.4494C18.9992 25.5719 19.327 25.6942 19.6548 25.8981C19.9009 26.1023 20.1465 26.3473 20.3514 26.5923C20.5974 26.9185 20.7614 27.2042 20.9254 27.5311C21.1711 27.2859 21.458 27.0003 21.7858 26.7555C22.1136 26.5105 22.4823 26.2655 22.8921 26.0616C23.2609 25.8168 23.6709 25.6125 24.1215 25.4494C24.6133 25.3268 25.1049 25.2451 25.6376 25.2451C26.2931 25.2451 26.908 25.4086 27.4816 25.6942C28.0142 26.0209 28.4651 26.429 28.752 26.9187C29.0797 27.5312 29.3255 28.1435 29.4484 28.8372C29.6124 29.6126 29.6944 30.3885 29.6944 31.2047V38.5515H26.3755V31.2454C26.4575 30.4291 26.2935 29.6126 25.8839 28.9189C25.515 28.3881 24.9002 28.0616 24.2446 28.1433C23.7119 28.1433 23.1791 28.2659 22.6873 28.5516C22.1958 28.8781 21.7449 29.2865 21.4582 29.8169" fill="#174880"/>
<path d="M40.3908 32.5101H37.4815C36.8667 32.4694 36.2931 32.6329 35.7603 32.9594C35.4325 33.2859 35.2276 33.735 35.2276 34.2246C35.2276 34.6737 35.3916 35.0818 35.7194 35.4083C36.088 35.6941 36.5798 35.8571 37.0716 35.8163C37.4403 35.8163 37.8093 35.7757 38.178 35.6532C38.5058 35.5715 38.8336 35.4489 39.1204 35.2859C39.4073 35.082 39.6531 34.8776 39.8582 34.6737C40.1041 34.4285 40.2679 34.1837 40.4319 33.9389L40.3908 32.5101ZM40.3908 37.0819C39.94 37.5306 39.3666 37.898 38.7926 38.1432C38.0142 38.4289 37.1945 38.5919 36.3749 38.5512C35.8013 38.5919 35.1867 38.4697 34.6538 38.2654C34.1621 38.0615 33.7114 37.776 33.3016 37.4085C32.9328 37.0002 32.6461 36.5513 32.4412 36.0617C32.2363 35.5309 32.1543 34.9596 32.1543 34.3883C32.1543 31.9393 34.0803 30.3473 37.1537 30.3473H40.4317V29.6125C40.4317 29.1228 40.1449 28.7148 39.7353 28.5106C39.0795 28.2247 38.342 28.0615 37.6044 28.1022C36.7849 28.1022 35.9653 28.2247 35.1867 28.388C34.572 28.5515 33.9572 28.7554 33.3427 29.0006L32.974 26.2655C33.1789 26.1433 33.4658 26.0616 33.8345 25.9394C34.1623 25.8168 34.5722 25.7351 34.9411 25.6126C35.3096 25.5309 35.8015 25.4494 36.2931 25.3676C36.7849 25.2862 37.3175 25.2862 37.8504 25.2862C39.3666 25.1631 40.9237 25.6535 42.071 26.6326C43.0954 27.6943 43.5872 29.1225 43.5052 30.5512V38.551H41.1695L40.3908 37.0819Z" fill="#174880"/>
<path d="M58.8715 25.0821L53.5853 31.6944L59.6092 38.5105H55.5115L49.9385 31.7761V38.5105H46.7012V20.3472H49.9385V31.7761L54.8968 25.0821H58.8715Z" fill="#174880"/>
<path d="M66.1229 28.2245C65.7131 28.2245 65.3035 28.2656 64.9346 28.3879C64.6069 28.4695 64.2791 28.633 64.0331 28.8369C63.7462 29.0004 63.5413 29.2449 63.3774 29.5308C63.2136 29.8166 63.0907 30.1022 63.0087 30.4288H68.7866C68.7866 30.1431 68.7457 29.8573 68.6226 29.5718C68.5406 29.3266 68.3357 29.0819 68.1308 28.878C67.885 28.6738 67.5982 28.5106 67.3115 28.388C66.9015 28.2658 66.4919 28.184 66.1229 28.2245ZM66.7375 35.6943C67.2293 35.6943 67.762 35.6534 68.2537 35.5308C68.7046 35.4491 69.1553 35.3269 69.565 35.1635C69.9339 35.0411 70.3026 34.8778 70.6306 34.6739C70.7945 34.5922 70.9583 34.4696 71.1223 34.3474L71.737 37.2451C71.0403 37.6125 70.3026 37.939 69.5241 38.1838C68.6224 38.429 67.6802 38.5512 66.7375 38.5512C65.7133 38.5512 64.6887 38.3881 63.7052 38.0616C62.9267 37.776 62.148 37.3267 61.5334 36.7147C60.9186 36.143 60.4679 35.4087 60.1812 34.6331C59.8125 33.8167 59.6485 32.9187 59.6074 31.98C59.6074 31.1227 59.7303 30.2653 60.0174 29.4492C60.3041 28.633 60.7138 27.939 61.2876 27.286C61.8203 26.6741 62.5169 26.1837 63.2955 25.8576C65.0574 25.1634 67.0652 25.1634 68.8273 25.8576C69.565 26.1433 70.1795 26.6328 70.7124 27.2041C71.2041 27.7758 71.5728 28.4288 71.8188 29.1227C72.0235 29.8575 72.1467 30.6326 72.1467 31.4086C72.1467 31.6125 72.1467 31.8574 72.1467 32.102C72.1057 32.3472 72.0648 32.592 72.0235 32.7959H62.9674C63.0085 33.245 63.1314 33.6532 63.3363 34.0207C63.5003 34.388 63.7871 34.7145 64.1149 34.9595C64.4427 35.245 64.8116 35.4489 65.2623 35.5308C65.7131 35.6943 66.2047 35.7759 66.7374 35.7759V35.6943H66.7375Z" fill="#174880"/>
<path d="M132.712 27.163L137.056 21.9385H138.04V25.2445H141.769V28.1018H138.04V33.5711C138.04 33.8569 138.08 34.1834 138.163 34.5099C138.245 34.7141 138.367 34.9182 138.531 35.1221C138.695 35.2447 138.9 35.3673 139.105 35.4082C139.31 35.4897 139.515 35.5304 139.761 35.5304C140.129 35.5304 140.498 35.4897 140.827 35.3674C141.154 35.3265 141.441 35.2039 141.728 35.0817V37.9794C141.4 38.1429 141.031 38.2651 140.621 38.3468C139.474 38.5916 138.285 38.5507 137.179 38.2242C136.647 38.061 136.196 37.7755 135.786 37.4081C135.458 37.0407 135.171 36.5916 135.007 36.1021C134.843 35.5714 134.72 34.9591 134.761 34.3876V28.1834H132.631" fill="#174880"/>
<path d="M147.341 28.0207C147.832 27.2042 148.447 26.5106 149.226 25.9797C149.881 25.4901 150.701 25.2449 151.562 25.2863C151.808 25.2451 152.053 25.2451 152.299 25.2863L152.75 25.3676C152.75 25.3676 152.668 26.1025 152.176 28.3881C151.93 28.3477 151.684 28.3064 151.439 28.3477C150.865 28.3064 150.332 28.429 149.8 28.6332C149.308 28.8372 148.898 29.1636 148.57 29.572C148.242 29.98 147.955 30.47 147.791 31.0004C147.628 31.6533 147.546 32.3063 147.546 32.9598V38.5515H144.268V25.2863H146.316" fill="#174880"/>
<path d="M167.463 28.1843C167.094 28.1436 166.725 28.2249 166.397 28.3478C166.07 28.4701 165.783 28.6334 165.495 28.8373C165.25 29.0008 165.045 29.2453 164.84 29.4905C164.676 29.7356 164.512 29.9799 164.43 30.2657V34.0211C164.553 34.2659 164.717 34.4699 164.922 34.6741C165.127 34.878 165.332 35.0413 165.577 35.2045C165.864 35.368 166.151 35.4902 166.438 35.5719C167.257 35.776 168.118 35.7352 168.897 35.4492C169.265 35.2453 169.634 35.0004 169.88 34.6739C170.167 34.3474 170.372 33.9391 170.495 33.531C170.618 33.0413 170.7 32.5106 170.741 31.98C170.741 31.4902 170.659 30.9598 170.495 30.4289C170.372 29.9796 170.167 29.5718 169.88 29.2044C169.593 28.8779 169.265 28.5918 168.856 28.4286C168.446 28.2246 168.036 28.1431 167.585 28.1431L167.463 28.1843ZM168.364 25.2866C169.266 25.2454 170.126 25.4496 170.905 25.817C171.602 26.1839 172.175 26.6743 172.667 27.3273C173.118 27.9802 173.486 28.7151 173.691 29.4905C173.897 30.3068 174.019 31.1638 174.019 31.9803C174.019 32.8372 173.897 33.6948 173.651 34.5108C173.446 35.2865 173.077 35.9802 172.585 36.5925C172.093 37.2047 171.519 37.6947 170.823 38.0212C170.086 38.3884 169.225 38.5516 168.406 38.5516C167.586 38.5516 166.808 38.4294 166.07 38.1436C165.455 37.8575 164.881 37.4903 164.43 36.9599V43.8578H161.152V25.2866H163.078L164.348 26.8784C164.84 26.3884 165.455 25.98 166.151 25.6539C166.848 25.4087 167.586 25.2454 168.323 25.2866H168.364Z" fill="#174880"/>
<path d="M156.112 19.8575C155.169 19.8575 154.432 20.5923 154.432 21.5308C154.432 22.4694 155.169 23.2455 156.112 23.2455C157.054 23.2455 157.792 22.4696 157.792 21.5308C157.832 21.0818 157.628 20.674 157.299 20.3473C157.013 20.0208 156.562 19.8169 156.112 19.8169V19.8575ZM157.71 38.5514H154.432V25.2864H157.71V38.5514Z" fill="#174880"/>
</svg>
