<svg width="184" height="64" viewBox="0 0 184 64" fill="none" xmlns="http://www.w3.org/2000/svg">
<path fill-rule="evenodd" clip-rule="evenodd" d="M168.453 38.8609V23.3354H171.38V29.7609L177.852 23.3354H181.434L174.295 30.2385L182.282 38.8609H178.503L171.38 30.9299V38.8609H168.453Z" fill="#A42551"/>
<path fill-rule="evenodd" clip-rule="evenodd" d="M150.211 38.8602V22.7192L161.651 32.2105C161.966 32.4786 162.281 32.7644 162.6 33.0684C162.919 33.3724 163.255 33.7164 163.607 34.1V23.3347H166.316V39.4647L154.641 29.8032C154.331 29.5427 154.029 29.2678 153.739 28.9781C153.445 28.6847 153.168 28.3841 152.907 28.0658V38.8602H150.211Z" fill="#A42551"/>
<path fill-rule="evenodd" clip-rule="evenodd" d="M145.654 38.8602L143.609 34.8602H136.478L134.387 38.8602H131.309L140.031 22.7192L148.741 38.8602H145.654ZM137.557 32.7607H142.576L140.732 29.2206C140.627 28.9925 140.514 28.7319 140.401 28.4385C140.287 28.1455 140.17 27.8196 140.056 27.4579C139.955 27.7981 139.854 28.1164 139.741 28.4098C139.632 28.7029 139.519 28.9706 139.405 29.2206L137.557 32.7607Z" fill="#A42551"/>
<path fill-rule="evenodd" clip-rule="evenodd" d="M119.855 38.8609V23.3354H124.395C125.693 23.3354 126.65 23.397 127.268 23.5167C127.885 23.6356 128.414 23.835 128.847 24.1103C129.405 24.4649 129.838 24.9282 130.144 25.5003C130.451 26.072 130.606 26.7056 130.606 27.3966C130.606 28.2259 130.384 28.9173 129.943 29.4712C129.498 30.0248 128.855 30.4122 128.011 30.6331C129.061 30.774 129.888 31.1867 130.493 31.8672C131.094 32.5514 131.396 33.4093 131.396 34.4481C131.396 35.0784 131.27 35.6754 131.014 36.2399C130.762 36.8082 130.401 37.2897 129.93 37.6843C129.439 38.1151 128.83 38.4191 128.099 38.5966C127.368 38.7737 126.142 38.8609 124.42 38.8609H119.855ZM122.724 36.7504H123.732C124.756 36.7504 125.525 36.7142 126.033 36.6455C126.541 36.573 126.94 36.4498 127.238 36.2724C127.6 36.07 127.877 35.7913 128.074 35.4473C128.271 35.0999 128.368 34.7196 128.368 34.2997C128.368 33.8077 128.251 33.3731 128.011 33.0076C127.772 32.6386 127.431 32.3524 126.99 32.1496C126.713 32.0265 126.394 31.9397 126.037 31.8819C125.68 31.8275 125.205 31.7984 124.618 31.7984H122.724V36.7504ZM122.724 29.8908H123.841C125.235 29.8908 126.222 29.728 126.802 29.3987C127.377 29.0691 127.666 28.5155 127.666 27.7373C127.666 26.8899 127.402 26.2929 126.869 25.9489C126.335 25.6049 125.327 25.435 123.841 25.435H122.724V29.8908Z" fill="#A42551"/>
<path fill-rule="evenodd" clip-rule="evenodd" d="M97.7734 35.7509L100.013 34.8205C100.226 35.5122 100.617 36.0405 101.181 36.4023C101.749 36.7682 102.474 36.949 103.352 36.949C104.185 36.949 104.85 36.7391 105.342 36.323C105.833 35.9065 106.079 35.3491 106.079 34.6505C106.079 33.7382 105.237 32.9237 103.553 32.2108C103.316 32.1058 103.139 32.0261 103.009 31.9793C101.108 31.1429 99.8393 30.39 99.2072 29.7133C98.5747 29.04 98.2564 28.2111 98.2564 27.2373C98.2564 25.97 98.736 24.9459 99.6902 24.1605C100.645 23.3747 101.898 22.9839 103.449 22.9839C104.721 22.9839 105.789 23.2048 106.647 23.6462C107.504 24.088 108.097 24.725 108.427 25.5505L106.232 26.5674C105.885 26.0788 105.507 25.7242 105.092 25.4999C104.681 25.2718 104.206 25.1593 103.67 25.1593C102.916 25.1593 102.316 25.3368 101.874 25.688C101.426 26.0425 101.205 26.5168 101.205 27.1104C101.205 28.0442 102.18 28.9131 104.133 29.7167C104.282 29.782 104.399 29.8326 104.484 29.8651C106.192 30.5746 107.364 31.266 108.004 31.9393C108.641 32.6163 108.959 33.4596 108.959 34.4697C108.959 35.9393 108.443 37.1084 107.412 37.9735C106.381 38.8386 104.991 39.2729 103.235 39.2729C101.765 39.2729 100.56 38.9693 99.6181 38.3609C98.6797 37.7526 98.0631 36.8837 97.7734 35.7509Z" fill="#A42551"/>
<path fill-rule="evenodd" clip-rule="evenodd" d="M92.625 38.8609H95.4325V23.3354H92.625V38.8609Z" fill="#A42551"/>
<path fill-rule="evenodd" clip-rule="evenodd" d="M75.7871 38.8609L81.3897 30.7381L76.4355 23.3354H79.3839L81.8731 27.1327C82.0101 27.3279 82.256 27.7406 82.6185 28.3633L82.7956 28.6711C82.9202 28.4502 83.0614 28.2183 83.2147 27.9691C83.3676 27.7225 83.5406 27.4514 83.7377 27.1546L86.3685 23.3354H89.2482L84.1972 30.6943L89.639 38.8609H86.5335L83.6456 34.4591L83.5972 34.3866C83.2827 33.8545 82.993 33.3587 82.7231 32.892C82.5901 33.1307 82.4451 33.3803 82.2881 33.6374C82.131 33.8942 81.9618 34.1589 81.7805 34.4266L78.7597 38.8609H75.7871Z" fill="#A42551"/>
<path fill-rule="evenodd" clip-rule="evenodd" d="M72.1949 38.8602L70.2336 34.8602H63.3939L61.3881 38.8602H58.4355L66.8019 22.7192L75.1554 38.8602H72.1949ZM64.4294 32.7607H69.2428L67.4744 29.2206C67.3736 28.9925 67.2652 28.7319 67.1561 28.4385C67.0473 28.1455 66.9348 27.8196 66.826 27.4579C66.7294 27.7981 66.6323 28.1164 66.524 28.4098C66.419 28.7029 66.3102 28.9706 66.2019 29.2206L64.4294 32.7607Z" fill="#A42551"/>
<path fill-rule="evenodd" clip-rule="evenodd" d="M1 53L26.1708 10L33.9318 23.0049L17.1512 52.7904L1 53Z" fill="#A42551"/>
<path fill-rule="evenodd" clip-rule="evenodd" d="M26.3828 36.6393L41.9049 36.4297L51.344 52.7908H35.4024L26.3828 36.6393Z" fill="#A42551"/>
</svg>
