<svg width="184" height="64" viewBox="0 0 184 64" fill="none" xmlns="http://www.w3.org/2000/svg">
<path d="M88.7817 2.43712C88.5784 2.49134 88.2395 2.53201 88.0361 2.53878C87.8328 2.53878 87.4939 2.58623 87.2906 2.64045C87.0873 2.69468 86.8297 2.74212 86.7213 2.74212C86.2333 2.74212 82.885 3.62323 82.1598 3.93501C82.0446 3.98923 81.8887 4.0299 81.8141 4.0299C81.7328 4.0299 81.6583 4.05701 81.6311 4.0909C81.6108 4.12479 81.4956 4.17901 81.3804 4.20612C81.2584 4.22645 81.116 4.2739 81.055 4.30101C81.0008 4.32812 80.8314 4.40268 80.6823 4.46368C80.5331 4.53145 80.323 4.62634 80.2214 4.68056C80.1129 4.73479 79.9706 4.77545 79.9028 4.77545C79.8418 4.77545 79.7469 4.8229 79.6995 4.87712C79.652 4.93134 79.5639 4.97879 79.4961 4.97879C79.4284 4.97879 79.3403 5.02623 79.2928 5.08045C79.2454 5.13467 79.1505 5.18212 79.0827 5.18212C79.0217 5.18212 78.92 5.22956 78.859 5.28379C78.8048 5.33801 78.7167 5.38545 78.6557 5.38545C78.6015 5.38545 78.5405 5.41256 78.5134 5.44645C78.493 5.48712 78.3168 5.58879 78.1203 5.69045C77.9305 5.78534 77.7204 5.88701 77.6661 5.92767C77.6119 5.96156 77.2934 6.14457 76.9545 6.34112C76.6224 6.53767 76.3377 6.72068 76.3241 6.75456C76.3106 6.78167 76.2699 6.80879 76.2293 6.80879C76.1411 6.80879 74.8534 7.66279 74.6161 7.8729C74.5213 7.96101 74.4264 8.02879 74.3993 8.02879C74.3247 8.02879 73.7079 8.50323 73.6808 8.57779C73.6673 8.61168 73.613 8.63879 73.5588 8.63879C73.5046 8.63879 73.4639 8.6659 73.4639 8.69301C73.4639 8.7269 73.3284 8.8489 73.1657 8.96412C72.6709 9.32334 72.3998 9.57412 71.0578 10.9093C69.5667 12.4072 69.1939 12.8071 69.1939 12.8952C69.1939 12.9359 69.1736 12.9766 69.1397 12.9901C69.1126 12.9969 68.9703 13.1596 68.8211 13.3493C68.672 13.5323 68.5094 13.7153 68.4687 13.7425C68.4213 13.7696 68.3806 13.8238 68.3806 13.8645C68.3806 13.8983 68.3467 13.9661 68.3128 14.0136C68.1298 14.2237 67.5673 15.0099 67.5673 15.0438C67.5673 15.0641 67.513 15.1455 67.4453 15.22C67.3707 15.2878 67.2758 15.4369 67.2216 15.5386C67.1741 15.6402 67.0521 15.83 66.9573 15.9588C66.7539 16.2435 66.6455 16.4197 66.5506 16.6027C66.5099 16.6772 66.4218 16.8263 66.3473 16.9416C66.2727 17.05 66.1846 17.2127 66.1507 17.294C66.1168 17.3686 66.049 17.4567 66.0151 17.4838C65.9745 17.5041 65.9406 17.5855 65.9406 17.66C65.9406 17.7278 65.9135 17.7888 65.8728 17.7888C65.8389 17.7888 65.7915 17.8633 65.7644 17.9582C65.744 18.0463 65.683 18.1548 65.6288 18.2022C65.5746 18.2429 65.5339 18.331 65.5339 18.3988C65.5339 18.4666 65.4865 18.5547 65.4323 18.6021C65.378 18.6496 65.3306 18.7309 65.3306 18.7851C65.3306 18.8393 65.2831 18.9275 65.2289 18.9817C65.1747 19.0427 65.1273 19.1443 65.1273 19.2053C65.1273 19.2731 65.0798 19.368 65.0256 19.4155C64.9714 19.4629 64.9239 19.5713 64.9239 19.6595C64.9239 19.7476 64.8968 19.8221 64.8561 19.8221C64.8223 19.8221 64.768 19.9035 64.7477 20.0051C64.7206 20.1136 64.6596 20.2559 64.6121 20.3305C64.5579 20.405 64.5173 20.527 64.5173 20.6083C64.5173 20.6897 64.4834 20.771 64.4427 20.7846C64.402 20.7981 64.3546 20.8862 64.3478 20.9743C64.3343 21.0692 64.28 21.2319 64.219 21.3471C64.158 21.4556 64.1106 21.5911 64.1106 21.6386C64.1106 21.686 64.0835 21.7741 64.0496 21.8419C63.8463 22.2282 63.2159 24.4446 62.9923 25.5493C62.9313 25.8476 62.8364 26.2678 62.7821 26.4779C62.7279 26.6948 62.6873 26.9862 62.6873 27.1218C62.6873 27.2641 62.6534 27.4878 62.6127 27.6166C62.572 27.7453 62.511 28.1859 62.4839 28.5993C62.45 29.006 62.389 29.555 62.3551 29.8193C62.267 30.4022 62.267 33.6013 62.3551 34.1571C62.389 34.3808 62.4433 34.8959 62.4771 35.3093C62.511 35.716 62.572 36.143 62.6127 36.2447C62.6534 36.3531 62.6873 36.57 62.6873 36.7395C62.6873 36.9089 62.7279 37.2342 62.7821 37.4647C62.8364 37.6951 62.9313 38.1289 62.9923 38.4271C63.2024 39.4031 63.7039 41.206 63.8869 41.6262C63.9344 41.7415 63.975 41.8838 63.975 41.938C63.975 41.9922 64.0225 42.1278 64.0767 42.2295C64.1309 42.3379 64.1784 42.4802 64.1784 42.5412C64.1784 42.609 64.2123 42.6632 64.2461 42.6632C64.2868 42.6632 64.3139 42.7513 64.3139 42.8598C64.3139 42.9682 64.3614 43.0902 64.4156 43.1377C64.4698 43.1851 64.5308 43.3207 64.5579 43.4495C64.5783 43.5782 64.6257 43.6799 64.6596 43.6799C64.6935 43.6799 64.7206 43.7545 64.7206 43.8426C64.7206 43.9307 64.768 44.0391 64.8223 44.0866C64.8765 44.134 64.9239 44.2289 64.9239 44.2967C64.9239 44.3577 64.9714 44.4593 65.0256 44.5203C65.0798 44.5746 65.1273 44.6762 65.1273 44.7508C65.1273 44.8253 65.1747 44.9202 65.2289 44.9677C65.2831 45.0151 65.3306 45.1032 65.3306 45.171C65.3306 45.2388 65.378 45.3269 65.4323 45.3743C65.4865 45.4218 65.5339 45.5167 65.5339 45.5912C65.5339 45.659 65.5814 45.7336 65.6356 45.7539C65.6898 45.781 65.7373 45.8488 65.7373 45.9166C65.7373 45.9911 65.7711 46.0657 65.8118 46.086C65.8457 46.1131 65.9135 46.2012 65.9474 46.2758C65.9813 46.3571 66.0694 46.513 66.1439 46.6282C66.2185 46.7367 66.3066 46.8926 66.3405 46.9671C66.3744 47.0417 66.476 47.2111 66.5641 47.3399C66.6523 47.4687 66.7471 47.6246 66.7743 47.6788C66.8827 47.8957 67.6215 49.0276 67.7028 49.1021C67.7231 49.1225 67.8519 49.3122 68.001 49.5223C68.1434 49.7392 68.2857 49.9155 68.3196 49.9155C68.3535 49.9155 68.3806 49.9561 68.3806 49.9968C68.3806 50.0442 68.4823 50.2001 68.6043 50.3357C68.7195 50.4712 68.8686 50.6475 68.9228 50.7288C69.2278 51.1693 72.637 54.6599 72.7658 54.6599C72.8065 54.6599 72.8539 54.7073 72.881 54.7616C72.9014 54.8158 72.9624 54.8632 73.0166 54.8632C73.0708 54.8632 73.125 54.8903 73.1386 54.9242C73.186 55.053 76.0124 57.0999 76.1479 57.0999C76.1615 57.0999 76.3038 57.188 76.4597 57.3032C76.6088 57.4117 76.7783 57.5066 76.8325 57.5066C76.8799 57.5066 76.9206 57.5337 76.9206 57.5608C76.9206 57.5879 77.09 57.6964 77.2934 57.8048C77.4967 57.9065 77.6797 58.0217 77.7 58.0556C77.7271 58.0895 77.8017 58.1166 77.8763 58.1166C77.944 58.1166 78.005 58.1437 78.005 58.1708C78.005 58.2047 78.1745 58.2996 78.3778 58.3945C78.5811 58.4826 78.7506 58.5775 78.7506 58.6046C78.7506 58.6385 78.7845 58.6588 78.8251 58.6588C78.8997 58.6588 79.7673 59.0519 80.1265 59.2417C80.2281 59.2959 80.3366 59.3298 80.3705 59.3095C80.4044 59.2891 80.4654 59.3162 80.5128 59.3705C80.5603 59.4247 80.628 59.4721 80.6755 59.4721C80.7433 59.4721 81.1906 59.6348 81.6989 59.8449C82.336 60.1092 84.8913 60.848 85.5623 60.9632C85.752 60.9904 85.9893 61.0514 86.0909 61.092C86.1994 61.1327 86.4298 61.1666 86.606 61.1666C86.7823 61.1666 86.9585 61.2005 86.9991 61.2411C87.0398 61.2818 87.3245 61.3292 87.6363 61.3496C87.948 61.3699 88.2666 61.4174 88.3344 61.458C88.5038 61.5461 90.6863 61.6681 92.0011 61.6614C93.4855 61.6546 95.4375 61.5461 95.6069 61.4512C95.6883 61.4038 95.9458 61.3699 96.183 61.3699C96.4203 61.3631 96.732 61.3225 96.8811 61.2682C97.0303 61.214 97.281 61.1666 97.4437 61.1666C97.5996 61.1666 97.8436 61.1191 97.9791 61.0649C98.1079 61.0107 98.2977 60.9632 98.3926 60.9632C98.4875 60.9632 98.7179 60.9226 98.9077 60.8684C99.0975 60.8141 99.6533 60.6582 100.134 60.5159C101.246 60.2041 102.181 59.8991 102.419 59.7704C102.513 59.7161 102.649 59.6755 102.724 59.6755C102.791 59.6755 102.907 59.628 102.974 59.5738C103.049 59.5196 103.171 59.4721 103.245 59.4721C103.327 59.4721 103.449 59.4247 103.517 59.3705C103.591 59.3162 103.706 59.2688 103.774 59.2688C103.842 59.2688 103.896 59.2349 103.896 59.201C103.896 59.1604 103.93 59.1332 103.971 59.1332C104.086 59.1332 105.923 58.2792 105.997 58.1911C106.018 58.1708 106.167 58.0827 106.336 57.9946C106.506 57.9065 106.736 57.7777 106.844 57.7099C106.96 57.6353 107.109 57.5472 107.183 57.5066C107.258 57.4659 107.414 57.3778 107.522 57.3032C107.637 57.2287 107.793 57.1338 107.881 57.0931C107.963 57.0457 108.031 56.9847 108.031 56.9508C108.031 56.9237 108.058 56.8966 108.098 56.8966C108.159 56.8966 108.512 56.6661 109.386 56.0493C110.145 55.5207 110.504 55.2496 110.572 55.1682C110.613 55.1276 110.776 54.9852 110.945 54.8565C111.447 54.4701 111.589 54.3413 112.938 52.9858C114.551 51.3727 114.808 51.0948 114.808 51.0135C114.808 50.9728 114.829 50.9321 114.863 50.9186C114.903 50.905 115.073 50.6949 115.506 50.1527C115.534 50.1188 115.757 49.807 115.994 49.4749C116.232 49.136 116.523 48.7361 116.632 48.5802C116.747 48.4243 116.842 48.2617 116.842 48.221C116.842 48.1871 116.869 48.1532 116.909 48.1532C116.943 48.1532 116.991 48.0787 117.018 47.9838C117.038 47.8889 117.086 47.8143 117.12 47.8143C117.153 47.8143 117.214 47.7466 117.248 47.6585C117.289 47.5771 117.377 47.4145 117.452 47.306C117.526 47.1908 117.614 47.0349 117.648 46.9536C117.682 46.879 117.75 46.7909 117.784 46.7638C117.824 46.7435 117.858 46.6689 117.858 46.5943C117.858 46.5266 117.906 46.4588 117.96 46.4317C118.014 46.4113 118.062 46.3368 118.062 46.2622C118.062 46.1945 118.109 46.1199 118.163 46.0928C118.218 46.0725 118.265 45.9979 118.265 45.9301C118.265 45.8556 118.312 45.7607 118.367 45.7132C118.421 45.6658 118.468 45.5777 118.468 45.5099C118.468 45.4421 118.516 45.354 118.57 45.3066C118.624 45.2591 118.672 45.1913 118.672 45.1507C118.672 45.11 118.767 44.8796 118.882 44.6356C119.099 44.1679 119.119 44.1272 119.349 43.5782C119.431 43.3885 119.519 43.1783 119.553 43.1038C119.749 42.6293 120.332 40.8739 120.61 39.9182C120.671 39.6946 120.766 39.376 120.813 39.2133C120.868 39.0439 120.908 38.827 120.908 38.7253C120.908 38.6305 120.956 38.4339 121.01 38.3051C121.064 38.1696 121.112 37.9256 121.112 37.7561C121.112 37.5935 121.159 37.3698 121.213 37.2681C121.268 37.1529 121.315 36.8953 121.315 36.6581C121.315 36.4345 121.349 36.2176 121.39 36.1769C121.43 36.1362 121.491 35.7092 121.525 35.228C121.559 34.7536 121.613 34.191 121.647 33.9877C121.735 33.4997 121.728 30.3955 121.647 29.921C121.606 29.7177 121.559 29.1822 121.525 28.7349C121.498 28.2876 121.437 27.8538 121.396 27.7725C121.349 27.6911 121.315 27.4539 121.315 27.2438C121.315 27.0405 121.268 26.7558 121.213 26.6202C121.159 26.4915 121.112 26.261 121.112 26.1119C121.112 25.9696 121.064 25.7391 121.01 25.6036C120.956 25.4748 120.908 25.285 120.908 25.1969C120.908 25.102 120.861 24.8851 120.813 24.7089C120.759 24.5395 120.664 24.2277 120.61 24.0243C120.176 22.4926 119.438 20.4118 119.112 19.8086C119.058 19.7137 119.011 19.5849 119.011 19.5239C119.011 19.4629 118.983 19.4155 118.943 19.4155C118.909 19.4155 118.875 19.3545 118.875 19.2867C118.875 19.2121 118.834 19.1105 118.787 19.063C118.733 19.0156 118.672 18.8868 118.645 18.7851C118.624 18.6835 118.57 18.6021 118.536 18.6021C118.495 18.6021 118.468 18.5411 118.468 18.4733C118.468 18.3988 118.421 18.2971 118.367 18.2361C118.312 18.1819 118.265 18.0938 118.265 18.0463C118.265 17.9921 118.231 17.9176 118.19 17.8769C118.096 17.782 117.953 17.538 117.852 17.294C117.811 17.1923 117.75 17.111 117.716 17.111C117.682 17.111 117.655 17.05 117.655 16.9755C117.655 16.9009 117.614 16.8196 117.56 16.7992C117.506 16.7789 117.445 16.7111 117.425 16.6501C117.404 16.5891 117.323 16.44 117.248 16.3316C117.174 16.2163 117.079 16.0605 117.038 15.9723C116.991 15.891 116.93 15.8232 116.896 15.8232C116.869 15.8232 116.842 15.7826 116.842 15.7351C116.842 15.6945 116.645 15.3759 116.401 15.0438C116.164 14.7049 115.927 14.3796 115.879 14.3118C115.791 14.1898 115.635 13.9797 115.486 13.8102C115.452 13.7628 115.418 13.695 115.418 13.6611C115.418 13.6205 115.378 13.5662 115.337 13.5391C115.29 13.512 115.127 13.329 114.978 13.146C114.829 12.9562 114.686 12.7936 114.659 12.7868C114.625 12.7732 114.605 12.7326 114.605 12.6919C114.605 12.658 114.476 12.4886 114.32 12.3191C113.704 11.6752 111.846 9.83846 111.562 9.60123C111.406 9.46568 111.114 9.2149 110.918 9.05901C110.728 8.89634 110.491 8.68623 110.389 8.59812C110.294 8.51001 110.193 8.43545 110.172 8.43545C110.152 8.43545 109.888 8.25923 109.596 8.04234C108.844 7.50012 108.288 7.12734 107.692 6.75456C107.407 6.57834 107.122 6.39534 107.048 6.3479C106.973 6.30723 106.851 6.23267 106.777 6.19879C106.702 6.15812 106.553 6.07001 106.438 5.99545C106.329 5.92767 105.99 5.7379 105.692 5.58879C105.394 5.4329 105.103 5.28379 105.048 5.25668C104.635 5.03301 104.506 4.97879 104.411 4.97879C104.35 4.97879 104.303 4.95168 104.303 4.91101C104.303 4.87712 104.221 4.8229 104.12 4.80256C104.011 4.77545 103.903 4.73479 103.862 4.70768C103.828 4.68056 103.706 4.6399 103.591 4.61279C103.483 4.58567 103.367 4.53145 103.347 4.49756C103.327 4.4569 103.225 4.42301 103.123 4.40945C103.022 4.40268 102.907 4.35523 102.866 4.31456C102.818 4.26712 102.744 4.23323 102.69 4.23323C102.635 4.23323 102.5 4.19256 102.385 4.13834C102.263 4.08412 102.107 4.0299 102.032 4.00956C101.958 3.98923 101.687 3.89434 101.422 3.80623C99.843 3.25045 97.2946 2.66756 95.8984 2.53201C95.5798 2.5049 95.1867 2.45068 95.0173 2.41001C94.5293 2.30156 89.2426 2.3219 88.7817 2.43712ZM91.8249 16.3722C92.3333 16.5349 92.6247 16.6705 92.9568 16.9145C93.5194 17.3279 93.8311 17.7685 94.0413 18.4598C94.17 18.8868 94.1633 20.2966 94.0345 20.7236C93.7498 21.6589 93.0381 22.4045 92.0689 22.7705C91.7775 22.8789 91.547 22.8992 90.4423 22.8992H89.1545L88.6461 22.6552C88.2937 22.4926 88.0226 22.3028 87.7786 22.0452C87.4261 21.686 87.3584 21.5911 87.1279 21.1438C86.6874 20.3033 86.7213 18.7783 87.2025 17.8566C87.399 17.477 88.253 16.6366 88.436 16.6366C88.497 16.6366 88.5851 16.6027 88.619 16.5688C88.6597 16.5281 88.8427 16.4536 89.0257 16.4061C89.4527 16.2909 91.486 16.2638 91.8249 16.3722ZM82.0853 19.0427C82.946 19.1782 83.678 19.5578 84.1864 20.1271C84.5863 20.5745 84.654 20.6693 84.8303 21.0353L85.02 21.4149L85.0404 28.0571C85.0471 32.6321 85.0336 34.8485 84.9794 35.1738C84.8099 36.2786 84.6201 37.0851 84.5049 37.2003C84.471 37.241 84.4439 37.3291 84.4439 37.3969C84.4439 37.4647 84.4033 37.607 84.349 37.7019C84.3016 37.8036 84.1457 38.1153 84.0101 38.3932C83.6984 39.0236 83.6848 39.0575 83.2104 39.681C82.397 40.779 81.055 41.7821 79.835 42.2227C78.4727 42.7039 77.8695 42.8191 76.2428 42.9072C73.6808 43.0496 70.8613 42.2159 69.4447 40.9078C68.0281 39.5929 67.6418 38.1696 68.3128 36.7259C68.4348 36.4683 68.5568 36.2447 68.5907 36.2379C68.6246 36.2243 68.6517 36.1837 68.6517 36.143C68.6517 36.0413 69.343 35.2009 69.7565 34.7875C70.4207 34.1436 70.5291 34.13 70.929 34.679C71.3967 35.3161 72.332 35.9668 73.1928 36.2515C73.3623 36.3057 73.7486 36.387 74.0604 36.4345C74.5484 36.509 74.711 36.509 75.2126 36.4141C76.1005 36.2447 76.297 36.1566 76.7173 35.7499C77.2391 35.2416 77.3815 34.9027 77.4628 33.9267C77.4967 33.4929 77.5374 30.5039 77.5645 27.2777C77.6051 20.6829 77.5645 21.1167 78.127 20.3982C78.6489 19.7272 79.5436 19.2325 80.5806 19.0427C81.1838 18.9275 81.4075 18.9275 82.0853 19.0427ZM106.844 24.1463C107.109 24.1802 107.427 24.2412 107.556 24.2751C107.685 24.3158 107.976 24.4039 108.2 24.4649C110.613 25.1495 112.863 27.0201 113.92 29.2093C114.049 29.4669 114.192 29.7651 114.239 29.8668C114.293 29.9617 114.334 30.104 114.334 30.1718C114.334 30.2396 114.361 30.3277 114.402 30.3683C114.436 30.4022 114.497 30.5717 114.53 30.7343C114.571 30.9038 114.632 31.1749 114.673 31.3443C114.863 32.0967 114.89 32.3068 114.924 33.1066C114.944 33.6352 114.93 34.1368 114.876 34.4282C114.835 34.6858 114.774 35.0586 114.741 35.2551C114.713 35.4449 114.652 35.7025 114.612 35.8312C114.259 36.9225 114.124 37.2749 113.846 37.8171C113.236 39.0032 112.009 40.3317 110.681 41.2467C110.22 41.5652 109.02 42.1888 108.864 42.1888C108.817 42.1888 108.681 42.2295 108.559 42.2837C108.295 42.3989 107.726 42.548 106.994 42.6903C106.275 42.8395 104.296 42.8395 103.578 42.6903C102.324 42.4396 101.592 42.1956 100.711 41.7211C99.05 40.84 97.4098 39.1727 96.6371 37.5799C96.1966 36.6717 96.1017 36.4412 96.1017 36.2853C96.1017 36.2108 96.0678 36.082 96.0204 36.0007C95.9797 35.9193 95.9187 35.6957 95.8848 35.5127C95.8577 35.3229 95.8035 35.0382 95.7696 34.8688C95.6544 34.3605 95.6815 32.3339 95.8035 31.751C95.9323 31.1139 96.0881 30.5649 96.2101 30.2735C96.2644 30.1515 96.305 30.0227 96.305 29.9888C96.305 29.8803 96.7591 28.9518 96.9421 28.6807C97.037 28.5383 97.1184 28.4028 97.1184 28.3825C97.1184 28.3621 97.3488 28.0571 97.6335 27.7115C98.9484 26.0848 100.568 24.9732 102.337 24.4785C102.541 24.4175 102.873 24.3226 103.076 24.2683C103.273 24.2073 103.578 24.1531 103.754 24.1531C103.923 24.1463 104.16 24.1192 104.269 24.0921C104.513 24.0243 106.173 24.0582 106.844 24.1463ZM91.7639 24.5191C92.8348 24.7631 93.7091 25.5832 94.0413 26.6609C94.1158 26.9185 94.1361 28.0775 94.1361 33.4116C94.1361 40.291 94.1429 40.1622 93.7973 40.8332C93.6278 41.1653 92.9839 41.8702 92.7196 42.0193C91.9876 42.4125 91.5267 42.487 90.1373 42.4396C88.9376 42.3989 88.7004 42.3311 88.0904 41.8702C87.5007 41.4229 87.0669 40.7519 86.8907 39.9996C86.8365 39.7759 86.8161 37.8239 86.8161 33.4455C86.8161 26.6948 86.8094 26.8507 87.1889 26.0916C87.3787 25.7052 87.7379 25.2918 88.1378 25.0003C88.7207 24.5666 89.2155 24.4446 90.4423 24.4446C90.9641 24.4378 91.5606 24.4785 91.7639 24.5191Z" fill="#FF0000"/>
<path d="M104.609 29.7517C104.127 29.8601 103.721 30.0025 103.612 30.1109C103.565 30.1583 103.49 30.1922 103.443 30.1922C103.321 30.1922 102.426 31.0733 102.338 31.2834C102.304 31.3716 102.243 31.4936 102.209 31.5478C101.789 32.2323 101.647 33.554 101.891 34.4622C102.257 35.8245 103.043 36.6311 104.405 37.0513C105.435 37.3631 106.791 37.0513 107.598 36.3058C108.275 35.6822 108.641 34.9502 108.79 33.9336C108.858 33.4591 108.858 33.2693 108.763 32.7407C108.614 31.8596 108.33 31.297 107.726 30.7006C107.177 30.1516 106.655 29.8669 105.964 29.7449C105.381 29.6365 105.13 29.6365 104.609 29.7517Z" fill="#FF0000"/>
</svg>
