<svg width="184" height="64" viewBox="0 0 184 64" fill="none" xmlns="http://www.w3.org/2000/svg">
<path d="M59.0997 17C59.4102 17.163 59.7439 17.295 60.0311 17.489C61.5448 18.5524 61.3197 21.0131 59.643 21.797C58.502 22.3326 56.9185 22.0842 56.15 21.2382C55.4126 20.4309 55.3273 19.1191 55.9094 18.1488C56.282 17.5278 56.934 17.326 57.5007 17C58.0363 17 58.5641 17 59.0997 17Z" fill="#F1635C"/>
<path d="M80.8257 33.4557C80.8257 30.2732 81.6718 27.7039 83.9849 25.7556C87.8117 22.5343 94.1612 23.5822 96.3967 27.7893C97.4912 29.8541 97.53 32.0896 97.4679 34.3406C97.4524 34.8374 97.0487 34.6433 96.8081 34.6433C93.416 34.6589 90.0317 34.6511 86.6396 34.6511C85.7159 34.6511 85.6849 34.7054 86.0652 35.567C86.9423 37.5464 88.9372 38.54 91.2193 38.113C92.4613 37.8802 93.5868 37.4067 94.4251 36.4286C94.6502 36.1725 94.7666 36.188 94.9762 36.4209C95.5894 37.104 96.2026 37.7793 96.8547 38.4313C97.1496 38.7263 97.1031 38.9203 96.8702 39.1998C95.6826 40.6047 94.1534 41.4508 92.3914 41.8234C88.813 42.5763 85.5529 42.0019 82.9448 39.2386C81.3535 37.5464 80.7714 35.4739 80.8257 33.4557Z" fill="#F1635C"/>
<path d="M128.384 39.7587C127.344 40.9618 126.211 41.8002 124.736 42.0408C121.08 42.6307 118.34 40.7057 117.68 37.0807C117.54 36.3045 117.447 35.505 117.439 34.7133C117.416 31.4299 117.439 28.1542 117.416 24.8708C117.416 24.3818 117.532 24.1955 118.053 24.211C119.24 24.2498 120.428 24.2498 121.615 24.211C122.159 24.1955 122.314 24.3507 122.306 24.8941C122.291 28.2939 122.314 31.6938 122.314 35.0936C122.314 37.7793 123.618 38.6953 126.521 37.8647C127.693 37.5309 128.159 36.7547 128.159 35.5438C128.159 31.9965 128.167 28.4492 128.151 24.9096C128.151 24.3818 128.26 24.1955 128.826 24.211C130.037 24.2576 131.248 24.2343 132.459 24.2188C132.871 24.211 133.065 24.2964 133.065 24.7699C133.049 30.2655 133.049 35.7689 133.065 41.2646C133.065 41.6837 132.909 41.8002 132.514 41.7924C131.372 41.7769 130.239 41.7769 129.098 41.7924C128.726 41.8002 128.586 41.6682 128.57 41.2956C128.539 40.8221 128.454 40.3486 128.384 39.7587Z" fill="#F1635C"/>
<path d="M68.1495 26.2215C69.0267 25.3133 69.9348 24.5448 71.0992 24.2343C75.0501 23.1709 78.97 24.6302 79.2495 29.8231C79.4591 33.6499 79.3038 37.4922 79.3193 41.3267C79.3193 41.7304 79.1408 41.8002 78.7915 41.8002C77.5573 41.7847 76.3231 41.7692 75.0889 41.808C74.5922 41.8235 74.4912 41.6372 74.4912 41.187C74.5068 38.0278 74.499 34.8686 74.499 31.7093C74.499 31.4687 74.5068 31.2281 74.4912 30.9875C74.4136 29.7766 74.2739 28.5967 72.9 28.0999C71.4096 27.5643 69.6011 27.968 68.6696 29.0003C68.3979 29.2953 68.3513 29.6213 68.3513 29.9939C68.3591 33.6577 68.3436 37.3214 68.3669 40.9929C68.3746 41.6062 68.2427 41.8468 67.5751 41.808C66.4263 41.7459 65.262 41.7769 64.0977 41.8002C63.6552 41.808 63.4534 41.7148 63.4612 41.2103C63.4767 35.7379 63.4767 30.2656 63.4612 24.7855C63.4612 24.3352 63.6009 24.2111 64.0433 24.2188C65.1533 24.2421 66.2711 24.2499 67.3811 24.2188C67.839 24.2033 67.9555 24.3896 67.971 24.8087C67.9865 25.2512 68.0797 25.6936 68.1495 26.2215Z" fill="#F1635C"/>
<path d="M136.574 32.4233C136.574 31.0959 136.558 29.7686 136.581 28.449C136.589 28.0454 136.527 27.8358 136.038 27.8513C135.464 27.8668 134.711 28.1152 134.361 27.7504C133.989 27.3545 134.253 26.6016 134.253 26.0039C134.253 25.4373 133.989 24.7076 134.369 24.335C134.711 23.9935 135.433 24.2186 135.976 24.2419C136.473 24.2652 136.581 24.0789 136.574 23.6209C136.55 21.6959 136.581 19.7631 136.55 17.8381C136.543 17.3491 136.667 17.1628 137.187 17.1783C138.367 17.2093 139.554 17.2093 140.742 17.1783C141.247 17.1628 141.41 17.318 141.402 17.8303C141.378 19.7321 141.417 21.6416 141.378 23.5433C141.363 24.1332 141.557 24.2652 142.116 24.2497C143.42 24.2108 144.732 24.2574 146.036 24.2264C146.486 24.2186 146.626 24.3506 146.602 24.8008C146.571 25.6469 146.564 26.4929 146.602 27.3313C146.626 27.8047 146.439 27.8901 146.013 27.8824C144.685 27.8591 143.35 27.8979 142.023 27.8591C141.503 27.8436 141.378 28.0143 141.378 28.5111C141.402 30.7311 141.379 32.9433 141.394 35.1633C141.41 37.2514 142.341 38.1518 144.437 38.1285C144.988 38.1207 145.547 38.0664 146.098 37.9965C146.494 37.9422 146.602 38.0897 146.595 38.4623C146.579 39.4248 146.587 40.3873 146.587 41.3576C146.587 41.5439 146.618 41.7379 146.339 41.7922C143.956 42.2424 141.573 42.5064 139.337 41.2877C137.381 40.2165 136.706 38.3536 136.581 36.2656C136.504 34.9925 136.566 33.7118 136.566 32.431C136.581 32.4233 136.574 32.4233 136.574 32.4233Z" fill="#F1635C"/>
<path d="M55.7912 32.9204C55.7912 30.2502 55.8067 27.5722 55.7757 24.902C55.7679 24.3587 55.9231 24.1956 56.4665 24.2189C57.7007 24.2577 58.9349 24.25 60.1691 24.2267C60.5805 24.2189 60.7047 24.3431 60.7047 24.7545C60.6969 30.2502 60.7047 35.738 60.7202 41.2337C60.7202 41.6761 60.596 41.8159 60.1458 41.8081C58.8883 41.7848 57.6308 41.777 56.3734 41.8081C55.861 41.8236 55.7834 41.6063 55.7834 41.1638C55.799 38.416 55.7912 35.6682 55.7912 32.9204Z" fill="#F1635C"/>
<path d="M113.17 47.8083C111.323 46.9545 109.569 46.155 107.83 45.3244C107.465 45.1536 107.193 45.1536 106.828 45.3244C105.066 46.1627 103.297 46.97 101.457 47.8238C101.457 46.0153 101.457 44.2843 101.457 42.4912C103.219 43.1976 104.942 43.8806 106.65 44.587C107.1 44.7733 107.488 44.8043 107.954 44.6025C109.506 43.935 111.074 43.3218 112.642 42.7008C112.798 42.6387 112.961 42.6076 113.162 42.5533C113.17 44.2998 113.17 45.9997 113.17 47.8083Z" fill="#F1635C"/>
<path d="M52.8659 24.2578C52.8659 22.1154 52.8504 19.9653 52.8737 17.8229C52.8815 17.3184 52.734 17.1554 52.2217 17.1709C51.0108 17.2097 49.8076 17.202 48.5967 17.1787C48.1465 17.1709 48.0223 17.3262 48.0301 17.7608C48.0534 19.158 48.0379 20.5552 48.0379 21.9524C48.0379 23.0702 48.0379 24.188 48.0379 25.4454C47.2306 24.7934 46.4854 24.3122 45.6005 24.0948C42.3093 23.2875 39.1967 24.9021 37.8694 28.0458C37.4813 28.9772 37.4036 29.9863 37 30.9023C37 32.346 37 33.7976 37 35.2413C37.2484 35.3888 37.2251 35.6605 37.2639 35.8778C37.4502 36.9102 37.8228 37.865 38.3273 38.7731C40.3688 42.4835 44.8709 42.9104 47.4246 41.0475C47.7118 40.8379 47.9137 40.5196 48.3018 40.4032C48.3251 40.5895 48.3639 40.7525 48.3639 40.9077C48.3639 41.5831 48.6278 41.8625 49.3652 41.8004C50.2811 41.7228 51.2048 41.7383 52.1208 41.7926C52.7495 41.8314 52.8737 41.5986 52.8659 41.0164C52.8582 35.4432 52.8659 29.8466 52.8659 24.2578ZM47.4867 37.1819C45.9265 38.8352 43.1554 38.3385 42.3637 36.2194C41.5952 34.1702 41.634 32.0588 42.3016 29.9863C42.6742 28.8375 43.4659 28.0225 44.7389 27.8905C45.9343 27.7663 46.99 28.0923 47.7429 29.1092C47.9525 29.3886 48.0611 29.6836 48.0534 30.0407C48.0301 31.0265 48.0456 32.02 48.0456 33.0058C48.0456 33.9218 48.0068 34.8377 48.0611 35.7536C48.0844 36.3513 47.8593 36.7783 47.4867 37.1819Z" fill="#F1635C"/>
<path d="M85.9023 31.1894C86.3836 28.6667 88.1844 27.4247 90.4355 28.0069C91.6697 28.3251 92.6089 29.4662 92.6788 30.7159C92.6943 30.972 92.7176 31.1894 92.3372 31.1894C90.1948 31.1816 88.0602 31.1894 85.9023 31.1894Z" fill="#FEFEFE"/>
<path d="M115.506 30.7623C114.924 27.7273 113.356 25.3909 110.352 24.4051C107.208 23.3727 104.173 23.6909 101.604 26.0196C100.207 27.2848 99.4772 28.9227 99.1511 30.7468C98.763 32.9513 98.8407 35.1324 99.7023 37.2127C100.983 40.2943 103.358 41.9088 106.704 42.0951C109.972 42.2814 112.65 41.2258 114.396 38.3305C115.366 36.7159 115.723 34.9384 115.677 33.0599C115.654 32.2992 115.654 31.5308 115.506 30.7623ZM110.476 35.668C109.987 37.4223 108.846 38.2296 107.138 38.1752C105.617 38.1286 104.422 37.0342 104.034 35.3265C103.863 34.5736 103.808 33.8051 103.832 33.0289C103.793 31.9577 103.902 30.9098 104.321 29.9162C104.872 28.5889 105.959 27.8593 107.356 27.867C108.722 27.8748 109.754 28.5811 110.298 29.9318C111.043 31.8102 111.004 33.7508 110.476 35.668Z" fill="#F1635C"/>
</svg>
