<svg width="184" height="64" viewBox="0 0 184 64" fill="none" xmlns="http://www.w3.org/2000/svg">
<path fill-rule="evenodd" clip-rule="evenodd" d="M69.7302 43.1837H73.7867V27.7379H69.7302V43.1837ZM69.7296 23.378H73.7861V19.9785H69.7296V23.378ZM63.5329 38.6756C62.9431 39.6363 62.1318 40.0802 61.025 40.0802C60.2143 40.0802 59.5505 39.8582 59.0341 39.415C58.4443 38.9711 58.0013 38.3065 57.7804 37.5672C57.4849 36.8284 57.3374 36.089 57.3374 35.2025C57.3374 34.3896 57.4849 33.6502 57.7804 32.8373C58.0013 32.0985 58.4443 31.5069 59.0341 31.0637C59.5505 30.6204 60.2143 30.3985 61.025 30.3985C61.7629 30.3985 62.3533 30.6204 62.8691 31.0637C63.3855 31.5069 63.7544 32.0985 64.0493 32.7637C64.2708 33.5767 64.4183 34.3896 64.4183 35.2767C64.4183 36.6065 64.1227 37.7891 63.5329 38.6756ZM67.8838 31.3592C67.4415 30.1771 66.7042 29.2165 65.7455 28.4035C64.7867 27.6648 63.6065 27.2951 62.2788 27.2951C61.32 27.2951 60.4347 27.5164 59.6234 27.8861C58.7387 28.2558 58.0748 28.7726 57.6325 29.512H57.5584V19.9786H53.502V43.1094C53.502 43.1094 57.1901 43.5532 57.337 41.1144V40.8189L57.411 40.9667C57.4844 41.1144 57.6325 41.3357 57.8534 41.6318C58.1489 42.0009 58.6647 42.2964 59.4025 42.6667C60.1398 43.0358 61.0985 43.1835 62.2788 43.1835C63.6065 43.1835 64.7867 42.8145 65.7455 42.0751C66.7042 41.3357 67.4415 40.3015 67.8838 39.1188C68.4002 37.8627 68.6217 36.6065 68.6217 35.2767C68.6217 33.9463 68.4002 32.616 67.8838 31.3592ZM85.0705 37.9368C85.3654 37.5672 85.5135 37.1239 85.661 36.6065C85.8084 36.089 85.8818 35.5716 85.8818 35.0542C85.8818 34.3896 85.8084 33.798 85.7344 33.2811C85.5875 32.7637 85.4395 32.2463 85.1446 31.803C84.9231 31.3592 84.5548 31.0637 84.1118 30.7682C83.6694 30.5468 83.0796 30.3985 82.4158 30.3985C81.8994 30.3985 81.383 30.5468 80.9406 30.7682C80.5717 30.9901 80.2028 31.2856 79.9078 31.7288C79.687 32.0985 79.4655 32.5424 79.318 33.0592C79.244 33.5767 79.1706 34.0941 79.1706 34.6851C79.1706 35.2025 79.1706 35.7935 79.318 36.311C79.3921 36.8284 79.6129 37.3452 79.8344 37.7149C80.1293 38.1582 80.4242 38.5279 80.8672 38.824C81.3096 39.0453 81.826 39.193 82.4158 39.193C83.0056 39.193 83.522 39.1189 83.9643 38.824C84.4073 38.602 84.7756 38.3065 85.0705 37.9368ZM85.8085 29.7332H85.8819C85.8819 29.7332 86.03 27.8119 89.2752 27.7383H89.7909V41.7795C89.7909 42.3712 89.7175 43.1093 89.496 43.8487C89.3486 44.6616 88.9796 45.3268 88.4633 45.992C87.9475 46.6566 87.1362 47.2482 86.1774 47.692C85.1446 48.2089 83.817 48.4308 82.1209 48.4308C81.3831 48.4308 80.6452 48.3566 79.9079 48.1353C79.0966 47.9875 78.4328 47.692 77.843 47.2482C77.1791 46.8791 76.6633 46.3617 76.2944 45.7701C75.8514 45.179 75.6305 44.4403 75.5565 43.6273H79.613C79.7605 44.3661 80.2028 44.8835 80.7192 45.179C81.3096 45.4745 81.8994 45.6223 82.6367 45.6223C83.8169 45.6223 84.6282 45.3268 85.1446 44.588C85.661 43.9222 85.9559 43.0357 85.8819 41.9273V40.0059H85.8085C85.4395 40.7453 84.7757 41.3357 83.9644 41.7795C83.1531 42.1492 82.2684 42.2964 81.3831 42.2964C80.2768 42.2964 79.3181 42.075 78.5802 41.706C77.7695 41.3357 77.1051 40.7453 76.5893 40.0801C76.0729 39.4149 75.704 38.602 75.4091 37.6413C75.1876 36.7542 75.1141 35.7935 75.1141 34.7592C75.1141 33.7979 75.1876 32.8372 75.4831 31.9507C75.7774 31.0636 76.1463 30.2507 76.7367 29.5861C77.2531 28.8467 77.9164 28.3293 78.7283 27.886C79.4655 27.5163 80.4243 27.295 81.4571 27.295C82.4158 27.295 83.2271 27.5163 83.9644 27.886C84.7023 28.2557 85.3655 28.8467 85.8085 29.7332Z" fill="#D7252C"/>
<path fill-rule="evenodd" clip-rule="evenodd" d="M142.513 28.995C142.808 28.6989 144.504 27.3685 145.906 28.8467L140.816 33.7978L146.939 43.3318H143.693L138.973 35.6457L136.835 37.567V43.3318H134.4V19.9785H136.835V34.5372L142.513 28.995ZM166.999 29.7338V30.0293H164.565V39.9323C164.565 41.1143 165.598 41.1143 166.114 41.1143H166.999V43.1092C166.536 43.148 166.114 43.2071 165.774 43.2546L165.774 43.2546C165.464 43.298 165.222 43.3318 165.081 43.3318C162.574 43.3318 162.057 41.8537 162.057 40.08V30.0293H159.993V27.9595H162.057V19.9785H164.565V27.9595C164.565 27.9595 166.778 27.9595 166.999 29.7338ZM128.574 34.3153L126.066 33.6501C124.075 33.1327 123.263 32.8372 123.263 31.6552C123.263 29.7338 125.55 29.5119 126.288 29.5119C127.984 29.5119 128.869 29.8815 129.311 30.4725C129.311 30.4725 130.713 32.0984 132.335 31.581C132.188 30.3248 131.229 27.295 126.582 27.295C123.559 27.295 120.83 28.7725 120.83 32.0984C120.83 34.1675 122.231 35.2766 124.37 35.7934L127.32 36.5322C129.459 37.0496 130.27 37.4935 130.27 38.6755C130.27 40.3755 128.647 41.1143 126.804 41.1143C123.263 41.1143 122.895 39.1929 122.821 38.0109H120.314C120.461 39.8581 120.903 43.3318 126.877 43.3318C130.27 43.3318 132.851 41.4098 132.851 38.3064C132.851 36.2373 131.745 35.0541 128.574 34.3153ZM157.19 34.0938C157.042 31.7292 156.084 29.5859 152.986 29.5859C150.626 29.5859 148.782 31.7292 148.782 34.0938V35.0539C149.151 34.6106 149.741 34.1674 150.699 34.0938H150.921H157.19ZM148.783 36.0889C148.783 39.2671 150.258 41.1143 153.208 41.1143C155.569 41.1143 156.97 39.2671 157.117 38.0845H159.625C159.551 38.8238 158.888 40.9665 156.97 42.2227C156.232 42.7402 155.273 43.3318 152.84 43.3318C148.562 43.3318 146.054 40.08 146.054 35.7199C146.054 30.99 148.341 27.295 153.356 27.295C157.707 27.295 159.846 30.768 159.846 36.0889H148.783ZM115.889 37.6409C115.889 39.6359 113.529 41.1882 111.17 41.1882C109.251 41.1882 108.44 40.2275 108.44 38.5274C108.44 36.606 110.432 36.237 111.685 36.0886C114.857 35.6454 115.447 35.4234 115.889 35.1279V37.6409ZM119.282 41.1143C118.765 41.1143 118.397 40.893 118.397 40.2278V31.5068C118.397 27.5905 114.045 27.295 112.792 27.295C109.104 27.295 106.744 28.6989 106.597 32.1726C107.998 32.3939 108.882 31.581 109.251 30.99C109.325 30.8422 109.399 30.6945 109.546 30.5467C109.989 29.8815 110.8 29.3641 112.349 29.3641C114.783 29.3641 115.963 30.2506 115.963 31.8765C115.963 33.3546 115.225 33.5765 114.636 33.6501L110.432 34.1675C106.154 34.685 105.785 37.6412 105.785 38.8974C105.785 41.5582 107.776 43.3318 110.579 43.3318C113.529 43.3318 115.004 41.9272 116.037 40.8188C116.11 42.0014 116.48 43.1834 118.692 43.1834C119.064 43.1834 119.348 43.0955 119.618 43.0119C119.776 42.9629 119.93 42.9153 120.093 42.8879V41.0407C119.935 41.0407 119.777 41.0618 119.631 41.0815C119.503 41.0984 119.385 41.1143 119.282 41.1143ZM94.2047 36.0152C94.2047 40.0058 96.712 41.1142 98.3346 41.1142C101.137 41.1142 102.465 38.6018 102.465 35.2765C102.465 33.2809 102.244 29.5859 98.2612 29.5859C94.6471 29.5859 94.2047 33.5023 94.2047 36.0152ZM94.4263 29.6597C95.459 28.0338 97.0082 27.2951 98.7783 27.2951C102.761 27.2951 105.047 30.5468 105.047 34.8328C105.047 38.4543 103.572 43.3319 98.4093 43.3319C95.8274 43.3319 94.7952 41.8538 94.2788 40.9666H94.2054V41.4099C94.2054 41.6318 94.0573 42.8145 92.7302 42.888H91.7715V19.9786H94.3528V29.6597H94.4263Z" fill="#1B1A19"/>
<path fill-rule="evenodd" clip-rule="evenodd" d="M21.8502 16H44.5611C47.2353 16 49.4562 18.1804 49.4562 20.815V43.5712C49.4562 46.2508 47.2353 48.4312 44.5611 48.4312H21.8502C19.176 48.4312 17 46.2508 17 43.5712V20.815C17 18.1804 19.176 16 21.8502 16Z" fill="#9CC63D"/>
<path fill-rule="evenodd" clip-rule="evenodd" d="M31.3887 20.0654H33.9724V27.8482C33.183 27.346 32.3116 27.0481 31.3887 27.0596V20.0654ZM35.4322 28.3776C38.851 26.7548 42.7145 28.5466 44.0901 32.0568C44.5889 33.3738 44.8608 34.6914 44.8608 36.099C44.8608 37.4616 44.5889 38.8242 44.0901 40.1418C43.5913 41.4132 42.8207 42.4128 41.8237 43.2306C40.8267 44.0022 39.6477 44.3658 38.243 44.3658C36.9735 44.3658 35.9765 44.2296 35.1604 43.8666C34.9832 43.7827 34.82 43.6982 34.6707 43.6143C35.2599 43.14 35.7902 42.5715 36.2484 41.9276C36.7011 42.0954 37.195 42.1787 37.7387 42.1787C40.9572 42.1787 41.9991 38.7871 41.9991 36.1039C41.9991 33.448 41.0239 29.9737 37.7387 29.9737C37.2387 29.9737 36.7806 30.0448 36.3582 30.1938C35.9565 29.6034 35.4947 29.072 34.9838 28.6147C35.1288 28.5296 35.2781 28.4506 35.4322 28.3776Z" fill="#1B1A19"/>
<path fill-rule="evenodd" clip-rule="evenodd" d="M32.0678 39.6876C31.4786 40.6866 30.6175 41.1408 29.4391 41.1408C28.6229 41.1408 27.9427 40.914 27.3535 40.4598C26.7643 39.96 26.311 39.324 26.0392 38.5518C25.7673 37.7796 25.5859 36.9624 25.5859 36.099C25.5859 35.2362 25.7673 34.3728 26.0392 33.6012C26.311 32.829 26.7643 32.193 27.3535 31.7388C27.9427 31.239 28.6229 31.0122 29.4391 31.0122C30.2097 31.0122 30.8894 31.239 31.4337 31.6932C31.9325 32.1474 32.3396 32.7834 32.6121 33.5556C32.8384 34.3278 32.9743 35.145 32.9743 36.099C32.9743 37.5528 32.657 38.7336 32.0678 39.6876ZM36.647 32.057C36.1482 30.785 35.3782 29.7404 34.3806 28.9682C33.3836 28.196 32.2046 27.7874 30.7993 27.7874C29.8023 27.7874 28.8502 27.9692 27.9891 28.3778C27.1281 28.7864 26.4023 29.3768 25.9042 30.149H25.8586V20.0654H21.5977V44.321C21.5977 44.321 25.4964 44.7752 25.6317 42.2762V41.9588C25.6317 41.9132 25.6317 41.9132 25.6317 41.8676L25.6772 42.0494C25.7682 42.2312 25.9042 42.458 26.1311 42.7766C26.4485 43.1396 26.9466 43.5032 27.7173 43.8668C28.5334 44.2298 29.5304 44.366 30.7993 44.366C32.2046 44.366 33.3836 44.0024 34.3806 43.2308C35.3782 42.413 36.1482 41.4134 36.647 40.142C37.1458 38.8244 37.4177 37.4618 37.4177 36.0992C37.4177 34.6916 37.1458 33.374 36.647 32.057Z" fill="#D7252C"/>
</svg>
