<svg width="184" height="64" viewBox="0 0 184 64" fill="none" xmlns="http://www.w3.org/2000/svg">
<path d="M36.7823 51.9877C36.7548 51.9713 36.7272 51.9439 36.6997 51.9165C36.2154 51.3196 33.2324 47.5904 30.1944 42.8042C29.2808 41.2818 28.6919 40.088 28.802 39.7814C29.0992 38.9818 34.3992 38.5437 36.0338 39.2666C36.5291 39.4856 36.5181 39.7759 36.5181 39.9456C36.5181 40.6794 36.4796 42.6399 36.4796 42.6399C36.4796 43.0451 36.8098 43.3737 37.2171 43.3737C37.6243 43.3737 37.9546 43.0451 37.9546 42.6344L37.9491 37.7387C37.9491 37.3116 37.4868 37.2076 37.3987 37.1911C36.5456 37.1857 34.8175 37.1802 32.9572 37.1802C28.857 37.1802 27.9434 37.3499 27.2444 36.8954C25.7309 35.9207 23.2653 29.2835 23.2047 25.5488C23.1222 20.2807 26.2538 15.7191 30.6567 13.4574C32.4949 12.532 34.5753 12.0117 36.7713 12.0117C43.7444 12.0117 49.4848 17.2634 50.2498 24.0209V24.0374C50.3874 25.6693 41.3668 26.0197 39.5837 25.5433C39.3085 25.4721 39.2424 25.1928 39.2424 25.0724C39.2424 23.8293 39.2314 20.3355 39.2314 20.3355C39.2314 19.9303 38.9012 19.6017 38.4939 19.6017C38.0867 19.6017 37.7564 19.9303 37.7564 20.341L37.7729 26.7809C37.784 27.1862 38.1252 27.2957 38.2187 27.3121H43.816C46.8045 27.3121 48.0593 27.6571 48.8904 28.2924C49.4462 28.714 49.6609 29.5245 49.4738 30.5759C47.8006 39.9183 37.1841 51.5003 36.7823 51.9877ZM65.5665 30.1652C68.2468 31.3097 69.9034 32.5802 69.9034 35.373C69.9034 38.2206 67.7405 40.0606 64.3942 40.0606C61.6809 40.0606 59.507 38.834 58.4227 36.6983L58.2466 36.3533L61.4332 34.5078L61.6424 34.8473C62.3579 36.0192 63.1614 36.5176 64.3282 36.5176C65.3298 36.5176 66.0068 36.074 66.0068 35.4114C66.0068 34.6776 65.517 34.4038 64.009 33.7466L63.2439 33.418C61.1966 32.5473 59.3033 31.3371 59.3033 28.4074C59.3033 25.7733 61.3232 23.9388 64.2181 23.9388C66.4086 23.9388 67.9166 24.7876 68.9513 26.6057L69.1439 26.9452L66.0563 28.9276L65.8417 28.5497C65.3243 27.6297 64.84 27.4436 64.2236 27.4436C63.5797 27.4436 63.1614 27.7995 63.1614 28.3526C63.1614 28.9878 63.4696 29.2671 64.807 29.8421L65.5665 30.1652ZM88.1371 30.7019L90.3881 24.4371H94.2516L88.5278 40.318H87.6693L84.1964 32.8814C84.0368 32.5419 83.8662 32.1202 83.7231 31.7314C83.5745 32.1202 83.4039 32.5419 83.2443 32.8869L79.6339 40.3235H78.7808L72.9634 24.4426H77.0912L79.3642 30.7073C79.5073 31.1071 79.6559 31.5945 79.788 32.0435C79.9421 31.5781 80.1292 31.0743 80.3218 30.669L83.3103 24.3112H84.1359L87.1684 30.669C87.361 31.0743 87.5482 31.5781 87.7023 32.0435C87.8399 31.589 87.994 31.1016 88.1371 30.7019V30.7019ZM98.7536 39.8635V24.114H102.65V39.8635H98.7536ZM115.435 34.568V31.0469H122.673V38.1056L122.524 38.2261C121.698 38.9052 119.502 40.0552 116.525 40.0552C111.506 40.0552 108.005 36.7366 108.005 31.9833C108.005 27.3176 111.385 23.9333 116.046 23.9333C118.605 23.9333 120.488 24.6562 121.787 26.1347L122.04 26.425L119.381 29.0535L119.095 28.7578C118.352 27.9966 117.582 27.5202 116.052 27.5202C113.669 27.5202 112.001 29.3547 112.001 31.9833C112.001 34.7214 113.779 36.4902 116.536 36.4902C117.45 36.4902 118.402 36.3314 119.051 36.0795V34.5626L115.435 34.568ZM135.193 34.568V31.0469H142.431V38.1056L142.282 38.2261C141.451 38.9052 139.261 40.0552 136.283 40.0552C131.264 40.0552 127.764 36.7366 127.764 31.9833C127.764 27.3176 131.143 23.9333 135.799 23.9333C138.364 23.9333 140.24 24.6562 141.539 26.1347L141.792 26.425L139.134 29.0535L138.842 28.7578C138.099 27.9966 137.329 27.5202 135.793 27.5202C133.41 27.5202 131.743 29.3547 131.743 31.9833C131.743 34.7214 133.52 36.4902 136.278 36.4902C137.191 36.4902 138.143 36.3314 138.793 36.0795V34.5626L135.193 34.568ZM156.724 24.114H160.797L155.205 34.5954V39.8635H151.286V34.8199L145.326 24.1195H149.674L152.425 29.1412C152.723 29.6888 153.031 30.4116 153.268 30.9976C153.493 30.4171 153.785 29.6997 154.082 29.1466L156.724 24.114Z" fill="#FC8019"/>
</svg>
