<svg width="184" height="64" viewBox="0 0 184 64" fill="none" xmlns="http://www.w3.org/2000/svg">
<path d="M74.0039 21.2066C73.9718 20.2434 74.1323 19.7617 74.7103 19.1838C75.224 18.7022 75.8341 18.4453 76.6047 18.4453C77.2468 18.4453 78.9807 18.7985 80.4897 19.2159C81.9988 19.6333 84.5033 20.147 86.1087 20.3718C87.971 20.6287 90.8607 20.725 94.2963 20.5966C98.8235 20.4681 100.172 20.2755 103.447 19.4407C105.566 18.8948 107.717 18.4453 108.263 18.4453C108.873 18.4453 109.483 18.7022 109.901 19.1517C110.286 19.5691 110.671 20.2113 110.8 20.6287C110.896 21.014 110.768 21.8167 110.543 22.3946C110.286 22.9405 109.644 23.5826 109.162 23.8074C108.681 24.0321 107.332 24.4817 106.176 24.8027C105.02 25.1559 103.062 25.6054 101.842 25.8302C100.622 26.055 99.2409 26.4081 98.7914 26.6329C98.3419 26.8577 97.6676 27.4035 97.2823 27.8209C96.897 28.2062 96.3512 29.1052 96.0943 29.7474C95.6448 30.7749 95.5806 32.9582 95.5806 57.6173H89.159V44.3887C89.159 36.2975 89.0305 30.6785 88.8379 30.0043C88.6452 29.3942 88.0994 28.4631 87.6178 27.9814C87.1361 27.4677 86.3977 26.8898 85.9481 26.665C85.4986 26.4403 84.2143 26.055 83.0584 25.8623C81.9025 25.6375 79.7513 25.0917 78.2422 24.6743C76.7331 24.2248 75.1919 23.5826 74.7745 23.1652C74.2822 22.6943 74.0253 22.0414 74.0039 21.2066Z" fill="#394F88"/>
<circle cx="92.6022" cy="12.6022" r="5.60221" fill="#F4900D"/>
</svg>
