<svg width="184" height="64" viewBox="0 0 184 64" fill="none" xmlns="http://www.w3.org/2000/svg">
<g clip-path="url(#clip0_107_47)">
<path d="M102.6 11.4592C104.348 13.4724 105.222 16.1647 105.222 19.5361V35.5919H98.0641V20.6612C98.0641 16.7007 96.5278 14.7205 93.4551 14.7205C92.3433 14.6944 91.2468 14.9839 90.2924 15.5556C89.377 16.1292 88.6577 16.9682 88.23 17.9611C87.7331 19.1233 87.4906 20.3787 87.519 21.6426V35.5865H80.3633V9.07435H85.2682L86.6904 12.3643C87.1795 11.7437 87.7484 11.1905 88.3825 10.7193C89.0319 10.2377 89.7304 9.8262 90.4664 9.49188C91.2285 9.14486 92.0258 8.88143 92.8445 8.7062C93.7067 8.52339 94.5859 8.4331 95.4673 8.43683C96.8061 8.37484 98.1418 8.61416 99.3761 9.13721C100.61 9.66026 101.712 10.4537 102.6 11.4592Z" fill="#040707"/>
<path d="M135.525 24.3441H115.52C115.706 25.9397 116.464 27.4134 117.653 28.4925C118.874 29.4905 120.417 30.0058 121.992 29.9409C123.138 29.9572 124.269 29.679 125.277 29.1327C126.236 28.6141 127.033 27.8412 127.582 26.8987H135.133C134.241 29.673 132.483 32.0869 130.117 33.7845C127.751 35.482 124.903 36.3733 121.993 36.3269C120.169 36.3746 118.355 36.0412 116.666 35.348C114.978 34.6548 113.452 33.6169 112.187 32.3006C110.898 30.9878 109.887 29.4288 109.213 27.7165C108.54 26.0041 108.217 24.1735 108.264 22.3336C108.258 20.8032 108.481 19.2804 108.926 17.8162C109.343 16.4255 109.989 15.1144 110.838 13.9372C111.657 12.8067 112.64 11.8054 113.756 10.9668C114.898 10.1158 116.174 9.4604 117.531 9.02729C118.973 8.56321 120.479 8.33106 121.993 8.33949C124.496 8.30136 126.962 8.9464 129.127 10.2054C131.188 11.3999 132.871 13.1528 133.982 15.2625C135.114 17.4102 135.695 19.8063 135.673 22.2349C135.671 22.9405 135.622 23.6452 135.525 24.3441ZM117.95 15.7519C116.817 16.6959 116.032 17.9916 115.719 19.4333H128.515C128.233 18.4371 127.749 17.5095 127.094 16.7081C126.487 15.9823 125.725 15.4031 124.863 15.0138C123.96 14.6132 122.981 14.4123 121.994 14.4247C120.531 14.378 119.098 14.8477 117.946 15.7519H117.95Z" fill="#040707"/>
<path d="M62.7098 7C59.8012 7 56.958 7.86368 54.5396 9.48179C52.1213 11.0999 50.2364 13.3998 49.1233 16.0906C48.0103 18.7814 47.7191 21.7423 48.2865 24.5989C48.8539 27.4554 50.2545 30.0793 52.3112 32.1388C54.3678 34.1982 56.9882 35.6008 59.8408 36.169C62.6935 36.7372 65.6503 36.4455 68.3375 35.331C71.0246 34.2164 73.3214 32.3289 74.9373 29.9073C76.5532 27.4856 77.4157 24.6385 77.4157 21.7259C77.4157 17.8204 75.8663 14.0748 73.1084 11.3131C70.3505 8.5515 66.61 7 62.7098 7ZM65.9289 30.6944C65.8751 30.7458 65.8115 30.7859 65.7418 30.8121C65.6722 30.8383 65.598 30.8502 65.5236 30.8471H65.5111C65.1712 30.8471 64.8323 30.8471 64.4933 30.8471H61.7575C61.3091 30.8471 61.1155 30.6513 61.1155 30.2104V28.6983C61.1155 24.8642 61.1155 23.8873 61.1155 19.5799L60.9711 19.6383C60.7634 19.7526 60.5427 19.8415 60.3138 19.9032L60.2869 19.914C60.1543 19.9768 60.0116 20.0154 59.8655 20.028C59.7489 20.0531 59.6341 20.081 59.5184 20.1079C59.3014 20.16 59.0782 20.2139 58.845 20.2507H58.8298C58.7903 20.2556 58.7513 20.2637 58.7132 20.2749L58.6675 20.2884H58.6298C58.5814 20.2985 58.5322 20.3042 58.4827 20.3055L58.0469 20.3485L57.7878 20.3737C57.7082 20.386 57.6268 20.3807 57.5494 20.3584C57.472 20.3361 57.4004 20.2972 57.3394 20.2444C57.2819 20.1904 57.2368 20.1245 57.2072 20.0514C57.1776 19.9782 57.1643 19.8994 57.1682 19.8206C57.1712 18.5898 57.1712 17.3596 57.1682 16.1301C57.1631 16.0567 57.1733 15.9831 57.1981 15.9139C57.223 15.8447 57.2619 15.7814 57.3125 15.7281C57.3632 15.6748 57.4243 15.6327 57.4921 15.6043C57.5599 15.576 57.6328 15.5621 57.7062 15.5635C57.9165 15.5465 58.1244 15.5077 58.3267 15.4477L58.4496 15.4163C58.6283 15.3754 58.8021 15.3151 58.9679 15.2367L58.9876 15.2277L59.5812 14.9655C60.0955 14.766 60.542 14.4232 60.868 13.9778C60.9756 13.821 61.0497 13.6437 61.0859 13.457C61.1029 13.2978 61.1815 13.1517 61.3049 13.05C61.4283 12.9482 61.5866 12.899 61.7458 12.9128H65.4573C65.6183 12.8965 65.7794 12.9442 65.9056 13.0457C65.9666 13.1054 66.0133 13.178 66.0425 13.2582C66.0717 13.3384 66.0825 13.4241 66.0742 13.5091V19.3743C66.0742 22.0366 66.0742 24.2339 66.0742 28.3212V28.8025C66.0742 29.2955 66.0742 29.7902 66.0814 30.2814C66.0865 30.3571 66.0755 30.433 66.0492 30.5042C66.023 30.5754 65.982 30.6402 65.9289 30.6944Z" fill="#040707"/>
<path d="M67.8427 56.1539C66.8606 55.6028 66.0514 54.7884 65.5059 53.8023C64.9388 52.7827 64.6476 51.6325 64.6612 50.4656C64.6396 49.6036 64.7929 48.7462 65.1118 47.9453C65.4306 47.1444 65.9084 46.4166 66.5162 45.8058C67.124 45.1951 67.8492 44.7142 68.6479 44.3921C69.4466 44.0701 70.3023 43.9137 71.1631 43.9323C72.5491 43.9008 73.9059 44.333 75.0189 45.1606C76.1005 45.9705 76.8787 47.121 77.2284 48.4273H75.2853C74.9328 47.6445 74.3572 46.9836 73.6309 46.5273C72.8936 46.0626 72.0378 45.8213 71.1667 45.8323C70.5692 45.8175 69.9751 45.9284 69.4231 46.158C68.871 46.3875 68.3733 46.7305 67.9619 47.1648C67.5391 47.6018 67.2077 48.1189 66.9872 48.6859C66.7667 49.2529 66.6615 49.8583 66.6778 50.4665C66.6669 51.287 66.866 52.0966 67.2562 52.8181C67.6311 53.51 68.1869 54.0868 68.864 54.4865C69.5609 54.8987 70.3575 55.1111 71.1667 55.1006C72.0324 55.1135 72.8822 54.8674 73.6075 54.394C74.3339 53.9126 74.9079 53.2335 75.2619 52.4365H77.2517C76.906 53.7658 76.1185 54.9376 75.0189 55.7588C73.9066 56.589 72.5502 57.0252 71.1631 56.9989C70.0015 57.0135 68.8564 56.7222 67.8427 56.1539Z" fill="#040707"/>
<path d="M92.2168 44.2104V56.7212H90.574L90.366 54.8212C89.7835 55.5133 89.0516 56.0638 88.2256 56.4312C87.3551 56.8158 86.4124 57.0093 85.461 56.9987C84.6068 57.0206 83.7572 56.8664 82.9651 56.5455C82.173 56.2247 81.4552 55.7442 80.8565 55.1337C79.6672 53.8707 79.0049 52.2004 79.0049 50.4645C79.0049 48.7286 79.6672 47.0583 80.8565 45.7953C81.4552 45.1849 82.173 44.7043 82.9651 44.3835C83.7572 44.0626 84.6068 43.9083 85.461 43.9303C86.4213 43.9181 87.3727 44.1158 88.2489 44.5095C89.0741 44.884 89.8053 45.4383 90.3893 46.132L90.6439 44.2086L92.2168 44.2104ZM88.9079 53.7787C89.7407 52.877 90.2032 51.694 90.2032 50.4658C90.2032 49.2376 89.7407 48.0547 88.9079 47.153C88.0214 46.3037 86.8411 45.8306 85.6142 45.8328C84.3873 45.8349 83.2088 46.3122 82.3253 47.1646C81.4855 48.0584 81.018 49.2392 81.018 50.4663C81.018 51.6934 81.4855 52.8743 82.3253 53.768C83.2088 54.6204 84.3873 55.0976 85.6142 55.0998C86.8411 55.102 88.0214 54.6289 88.9079 53.7797V53.7787Z" fill="#040707"/>
<path d="M102.975 44.1404V46.017H101.703C101.217 45.9887 100.73 46.0662 100.277 46.2442C99.8233 46.4221 99.4138 46.6963 99.0763 47.0479C98.4098 47.8557 98.0749 48.887 98.1393 49.9329V56.7212H96.1729V44.2095H97.5609L97.8846 46.1096C98.3241 45.4676 98.9208 44.9494 99.6176 44.6046C100.314 44.2598 101.088 44.1 101.864 44.1404H102.975Z" fill="#040707"/>
<path d="M116.741 39.7388V56.7204H115.238L114.96 54.9362C114.355 55.571 113.63 56.0798 112.828 56.4334C112.027 56.7871 111.163 56.9786 110.287 56.997C109.411 57.0153 108.54 56.8601 107.724 56.5404C106.907 56.2206 106.163 55.7426 105.532 55.1337C104.363 53.8583 103.715 52.1904 103.715 50.4595C103.715 48.7287 104.363 47.0608 105.532 45.7854C106.777 44.5956 108.432 43.9317 110.153 43.9317C111.874 43.9317 113.53 44.5956 114.775 45.7854V39.7388H116.741ZM113.595 53.7671C114.44 52.8743 114.912 51.6918 114.914 50.4618C114.916 49.2319 114.448 48.0478 113.606 47.1521C113.177 46.717 112.662 46.3751 112.095 46.1479C111.528 45.9206 110.92 45.8128 110.309 45.8312C109.682 45.8271 109.06 45.9492 108.481 46.1904C107.937 46.4122 107.442 46.739 107.024 47.1521C106.611 47.5724 106.288 48.073 106.075 48.6229C105.843 49.2088 105.725 49.834 105.728 50.4645C105.71 51.0757 105.815 51.6844 106.038 52.2538C106.261 52.8231 106.596 53.3415 107.024 53.7778C107.449 54.2127 107.959 54.5546 108.522 54.7819C109.086 55.0092 109.69 55.1171 110.298 55.0987C110.909 55.1153 111.517 55.0057 112.085 54.7766C112.652 54.5475 113.166 54.2039 113.595 53.7671Z" fill="#040707"/>
</g>
<defs>
<clipPath id="clip0_107_47">
<rect width="87.6712" height="50" fill="white" transform="translate(48 7)"/>
</clipPath>
</defs>
</svg>
